<svg width="27" height="20" viewBox="0 0 27 20" fill="none" xmlns="http://www.w3.org/2000/svg">
<g clip-path="url(#clip0_9_1701)">
<path d="M0 0H27V20H0V0Z" fill="#DE2910"/>
<path d="M3.24002 7.4L5.0625 2L6.88498 7.4L2.02504 4.1H8.09996L3.24002 7.4Z" fill="#FFDE00"/>
<path d="M11.1447 2.10348L9.26915 2.51399L10.5202 1.07413L10.3975 3.01199L9.3567 1.2964L11.1447 2.10348Z" fill="#FFDE00"/>
<path d="M13.0376 4.4728L11.1476 4.13274L12.8662 3.28481L11.9921 5.02399L11.7065 3.04399L13.0376 4.4728Z" fill="#FFDE00"/>
<path d="M12.7617 7.79684L11.1765 6.72503L13.0958 6.6431L11.5796 7.87896L12.1364 5.95605L12.7617 7.79684Z" fill="#FFDE00"/>
<path d="M10.3777 9.96836L9.3346 8.37503L11.137 9.03158L9.25511 9.59316L10.5207 8.03186L10.3777 9.96836Z" fill="#FFDE00"/>
</g>
<defs>
<clipPath id="clip0_9_1701">
<rect width="27" height="20" fill="white"/>
</clipPath>
</defs>
</svg>
