<svg width="27" height="20" viewBox="0 0 27 20" fill="none" xmlns="http://www.w3.org/2000/svg">
<path d="M0 0H27V20H0V0Z" fill="#003399"/>
<path d="M13.5 9.10819L13.2 10.0958L13.7 10.1946L13.5 9.10819Z" fill="#FFCC00"/>
<path d="M13.5 9.10819L13.8 10.0958L13.3 10.1946L13.5 9.10819Z" fill="#FFCC00"/>
<path d="M14.4511 9.79064L13.4073 9.81405L13.4667 10.3142L14.4511 9.79064Z" fill="#FFCC00"/>
<path d="M14.4511 9.79064L13.5927 10.3776L13.3431 9.9385L14.4511 9.79064Z" fill="#FFCC00"/>
<path d="M14.0878 10.8949L13.7427 9.92168L13.2794 10.132L14.0878 10.8949Z" fill="#FFCC00"/>
<path d="M14.0878 10.8949L13.2573 10.27L13.603 9.89983L14.0878 10.8949Z" fill="#FFCC00"/>
<path d="M12.5489 9.79064L13.5927 9.81405L13.5333 10.3142L12.5489 9.79064Z" fill="#FFCC00"/>
<path d="M12.5489 9.79064L13.4073 10.3776L13.6569 9.9385L12.5489 9.79064Z" fill="#FFCC00"/>
<path d="M12.9122 10.8949L13.2573 9.92168L13.7206 10.132L12.9122 10.8949Z" fill="#FFCC00"/>
<path d="M12.9122 10.8949L13.7427 10.27L13.397 9.89983L12.9122 10.8949Z" fill="#FFCC00"/>
<path d="M13.5 9.10819L13.2 10.0958L13.7 10.1946L13.5 9.10819Z" fill="#FFCC00"/>
<path d="M13.5 9.10819L13.8 10.0958L13.3 10.1946L13.5 9.10819Z" fill="#FFCC00"/>
<path d="M14.4511 9.79064L13.4073 9.81405L13.4667 10.3142L14.4511 9.79064Z" fill="#FFCC00"/>
<path d="M14.4511 9.79064L13.5927 10.3776L13.3431 9.9385L14.4511 9.79064Z" fill="#FFCC00"/>
<path d="M14.0878 10.8949L13.7427 9.92168L13.2794 10.132L14.0878 10.8949Z" fill="#FFCC00"/>
<path d="M14.0878 10.8949L13.2573 10.27L13.603 9.89983L14.0878 10.8949Z" fill="#FFCC00"/>
<path d="M12.5489 9.79064L13.5927 9.81405L13.5333 10.3142L12.5489 9.79064Z" fill="#FFCC00"/>
<path d="M12.5489 9.79064L13.4073 10.3776L13.6569 9.9385L12.5489 9.79064Z" fill="#FFCC00"/>
<path d="M12.9122 10.8949L13.2573 9.92168L13.7206 10.132L12.9122 10.8949Z" fill="#FFCC00"/>
<path d="M12.9122 10.8949L13.7427 10.27L13.397 9.89983L12.9122 10.8949Z" fill="#FFCC00"/>
<path d="M13.5 9.10819L13.2 10.0958L13.7 10.1946L13.5 9.10819Z" fill="#FFCC00"/>
<path d="M13.5 9.10819L13.8 10.0958L13.3 10.1946L13.5 9.10819Z" fill="#FFCC00"/>
<path d="M14.4511 9.79064L13.4073 9.81405L13.4667 10.3142L14.4511 9.79064Z" fill="#FFCC00"/>
<path d="M14.4511 9.79064L13.5927 10.3776L13.3431 9.9385L14.4511 9.79064Z" fill="#FFCC00"/>
<path d="M14.0878 10.8949L13.7427 9.92168L13.2794 10.132L14.0878 10.8949Z" fill="#FFCC00"/>
<path d="M14.0878 10.8949L13.2573 10.27L13.603 9.89983L14.0878 10.8949Z" fill="#FFCC00"/>
<path d="M12.5489 9.79064L13.5927 9.81405L13.5333 10.3142L12.5489 9.79064Z" fill="#FFCC00"/>
<path d="M12.5489 9.79064L13.4073 10.3776L13.6569 9.9385L12.5489 9.79064Z" fill="#FFCC00"/>
<path d="M12.9122 10.8949L13.2573 9.92168L13.7206 10.132L12.9122 10.8949Z" fill="#FFCC00"/>
<path d="M12.9122 10.8949L13.7427 10.27L13.397 9.89983L12.9122 10.8949Z" fill="#FFCC00"/>
<path d="M9.98582 5.80762L10.8163 5.18275L10.4706 4.81258L9.98582 5.80762Z" fill="#FFCC00"/>
<path d="M9.98582 5.80762L10.3309 4.83443L10.7942 5.04479L9.98582 5.80762Z" fill="#FFCC00"/>
<path d="M9.62255 4.70339L10.4809 5.29038L10.7305 4.85125L9.62255 4.70339Z" fill="#FFCC00"/>
<path d="M9.62255 4.70339L10.6663 4.72679L10.6069 5.22697L9.62255 4.70339Z" fill="#FFCC00"/>
<path d="M10.5736 4.02094L10.2736 5.00859L10.7736 5.10735L10.5736 4.02094Z" fill="#FFCC00"/>
<path d="M10.5736 4.02094L10.8736 5.00859L10.3736 5.10735L10.5736 4.02094Z" fill="#FFCC00"/>
<path d="M11.1614 5.80762L10.3309 5.18275L10.6766 4.81258L11.1614 5.80762Z" fill="#FFCC00"/>
<path d="M11.1614 5.80762L10.8163 4.83443L10.353 5.04479L11.1614 5.80762Z" fill="#FFCC00"/>
<path d="M11.5247 4.70339L10.6663 5.29038L10.4167 4.85125L11.5247 4.70339Z" fill="#FFCC00"/>
<path d="M11.5247 4.70339L10.4809 4.72679L10.5403 5.22697L11.5247 4.70339Z" fill="#FFCC00"/>
<path d="M8.93694 8.00461L8.59186 7.03142L8.12858 7.24178L8.93694 8.00461Z" fill="#FFCC00"/>
<path d="M8.93694 8.00461L8.10645 7.37974L8.45218 7.00957L8.93694 8.00461Z" fill="#FFCC00"/>
<path d="M7.76137 8.00461L8.59186 7.37974L8.24613 7.00957L7.76137 8.00461Z" fill="#FFCC00"/>
<path d="M7.76137 8.00461L8.10645 7.03142L8.56974 7.24178L7.76137 8.00461Z" fill="#FFCC00"/>
<path d="M7.3981 6.90038L8.25645 7.48737L8.50607 7.04824L7.3981 6.90038Z" fill="#FFCC00"/>
<path d="M7.3981 6.90038L8.44186 6.92378L8.38246 7.42396L7.3981 6.90038Z" fill="#FFCC00"/>
<path d="M9.30021 6.90038L8.44186 7.48737L8.19225 7.04824L9.30021 6.90038Z" fill="#FFCC00"/>
<path d="M9.30021 6.90038L8.25645 6.92378L8.31586 7.42396L9.30021 6.90038Z" fill="#FFCC00"/>
<path d="M8.34916 6.21792L8.64916 7.20558L8.14916 7.30434L8.34916 6.21792Z" fill="#FFCC00"/>
<path d="M8.34916 6.21792L8.04916 7.20558L8.54916 7.30434L8.34916 6.21792Z" fill="#FFCC00"/>
<path d="M9.30132 12.8405L8.25756 12.8639L8.31696 13.3641L9.30132 12.8405Z" fill="#FFCC00"/>
<path d="M9.30132 12.8405L8.44297 13.4275L8.19336 12.9884L9.30132 12.8405Z" fill="#FFCC00"/>
<path d="M8.93805 13.9447L8.59297 12.9716L8.12968 13.1819L8.93805 13.9447Z" fill="#FFCC00"/>
<path d="M8.93805 13.9447L8.10756 13.3199L8.45329 12.9497L8.93805 13.9447Z" fill="#FFCC00"/>
<path d="M7.76248 13.9447L8.59297 13.3199L8.24724 12.9497L7.76248 13.9447Z" fill="#FFCC00"/>
<path d="M7.76248 13.9447L8.10756 12.9716L8.57085 13.1819L7.76248 13.9447Z" fill="#FFCC00"/>
<path d="M8.35027 12.1581L8.65027 13.1457L8.15027 13.2445L8.35027 12.1581Z" fill="#FFCC00"/>
<path d="M8.35027 12.1581L8.05027 13.1457L8.55027 13.2445L8.35027 12.1581Z" fill="#FFCC00"/>
<path d="M7.39921 12.8405L8.44297 12.8639L8.38357 13.3641L7.39921 12.8405Z" fill="#FFCC00"/>
<path d="M7.39921 12.8405L8.25756 13.4275L8.50718 12.9884L7.39921 12.8405Z" fill="#FFCC00"/>
<path d="M11.4717 14.8284L10.4279 14.8518L10.4873 15.352L11.4717 14.8284Z" fill="#FFCC00"/>
<path d="M11.4717 14.8284L10.6133 15.4154L10.3637 14.9763L11.4717 14.8284Z" fill="#FFCC00"/>
<path d="M11.1084 15.9327L10.7633 14.9595L10.3 15.1698L11.1084 15.9327Z" fill="#FFCC00"/>
<path d="M11.1084 15.9327L10.2779 15.3078L10.6236 14.9376L11.1084 15.9327Z" fill="#FFCC00"/>
<path d="M9.93283 15.9327L10.7633 15.3078L10.4176 14.9376L9.93283 15.9327Z" fill="#FFCC00"/>
<path d="M9.93283 15.9327L10.2779 14.9595L10.7412 15.1698L9.93283 15.9327Z" fill="#FFCC00"/>
<path d="M10.5206 14.146L10.8206 15.1336L10.3206 15.2324L10.5206 14.146Z" fill="#FFCC00"/>
<path d="M10.5206 14.146L10.2206 15.1336L10.7206 15.2324L10.5206 14.146Z" fill="#FFCC00"/>
<path d="M9.56956 14.8284L10.6133 14.8518L10.5539 15.352L9.56956 14.8284Z" fill="#FFCC00"/>
<path d="M9.56956 14.8284L10.4279 15.4154L10.6775 14.9763L9.56956 14.8284Z" fill="#FFCC00"/>
<path d="M13.5 9.10819L13.8 10.0958L13.3 10.1946L13.5 9.10819Z" fill="#FFCC00"/>
<path d="M13.5 9.10819L13.2 10.0958L13.7 10.1946L13.5 9.10819Z" fill="#FFCC00"/>
<path d="M12.5489 9.79064L13.5927 9.81405L13.5333 10.3142L12.5489 9.79064Z" fill="#FFCC00"/>
<path d="M12.5489 9.79064L13.4073 10.3776L13.6569 9.9385L12.5489 9.79064Z" fill="#FFCC00"/>
<path d="M12.9122 10.8949L13.2573 9.92168L13.7206 10.132L12.9122 10.8949Z" fill="#FFCC00"/>
<path d="M12.9122 10.8949L13.7427 10.27L13.397 9.89983L12.9122 10.8949Z" fill="#FFCC00"/>
<path d="M14.4511 9.79064L13.4073 9.81405L13.4667 10.3142L14.4511 9.79064Z" fill="#FFCC00"/>
<path d="M14.4511 9.79064L13.5927 10.3776L13.3431 9.9385L14.4511 9.79064Z" fill="#FFCC00"/>
<path d="M14.0878 10.8949L13.7427 9.92168L13.2794 10.132L14.0878 10.8949Z" fill="#FFCC00"/>
<path d="M14.0878 10.8949L13.2573 10.27L13.603 9.89983L14.0878 10.8949Z" fill="#FFCC00"/>
<path d="M17.0142 5.80762L16.1837 5.18275L16.5294 4.81258L17.0142 5.80762Z" fill="#FFCC00"/>
<path d="M17.0142 5.80762L16.6691 4.83443L16.2058 5.04479L17.0142 5.80762Z" fill="#FFCC00"/>
<path d="M17.3774 4.70339L16.5191 5.29038L16.2695 4.85125L17.3774 4.70339Z" fill="#FFCC00"/>
<path d="M17.3774 4.70339L16.3337 4.72679L16.3931 5.22697L17.3774 4.70339Z" fill="#FFCC00"/>
<path d="M16.4264 4.02094L16.7264 5.00859L16.2264 5.10735L16.4264 4.02094Z" fill="#FFCC00"/>
<path d="M16.4264 4.02094L16.1264 5.00859L16.6264 5.10735L16.4264 4.02094Z" fill="#FFCC00"/>
<path d="M15.8386 5.80762L16.6691 5.18275L16.3234 4.81258L15.8386 5.80762Z" fill="#FFCC00"/>
<path d="M15.8386 5.80762L16.1837 4.83443L16.647 5.04479L15.8386 5.80762Z" fill="#FFCC00"/>
<path d="M15.4753 4.70339L16.3337 5.29038L16.5833 4.85125L15.4753 4.70339Z" fill="#FFCC00"/>
<path d="M15.4753 4.70339L16.5191 4.72679L16.4597 5.22697L15.4753 4.70339Z" fill="#FFCC00"/>
<path d="M18.0631 8.00461L18.4081 7.03142L18.8714 7.24178L18.0631 8.00461Z" fill="#FFCC00"/>
<path d="M18.0631 8.00461L18.8935 7.37974L18.5478 7.00957L18.0631 8.00461Z" fill="#FFCC00"/>
<path d="M19.2386 8.00461L18.4081 7.37974L18.7539 7.00957L19.2386 8.00461Z" fill="#FFCC00"/>
<path d="M19.2386 8.00461L18.8935 7.03142L18.4303 7.24178L19.2386 8.00461Z" fill="#FFCC00"/>
<path d="M19.6019 6.90038L18.7435 7.48737L18.4939 7.04824L19.6019 6.90038Z" fill="#FFCC00"/>
<path d="M19.6019 6.90038L18.5581 6.92378L18.6175 7.42396L19.6019 6.90038Z" fill="#FFCC00"/>
<path d="M17.6998 6.90038L18.5581 7.48737L18.8077 7.04824L17.6998 6.90038Z" fill="#FFCC00"/>
<path d="M17.6998 6.90038L18.7435 6.92378L18.6841 7.42396L17.6998 6.90038Z" fill="#FFCC00"/>
<path d="M18.6508 6.21792L18.3508 7.20558L18.8508 7.30434L18.6508 6.21792Z" fill="#FFCC00"/>
<path d="M18.6508 6.21792L18.9508 7.20558L18.4508 7.30434L18.6508 6.21792Z" fill="#FFCC00"/>
<path d="M17.6987 12.8405L18.7424 12.8639L18.683 13.3641L17.6987 12.8405Z" fill="#FFCC00"/>
<path d="M17.6987 12.8405L18.557 13.4275L18.8066 12.9884L17.6987 12.8405Z" fill="#FFCC00"/>
<path d="M18.0619 13.9447L18.407 12.9716L18.8703 13.1819L18.0619 13.9447Z" fill="#FFCC00"/>
<path d="M18.0619 13.9447L18.8924 13.3199L18.5467 12.9497L18.0619 13.9447Z" fill="#FFCC00"/>
<path d="M19.2375 13.9447L18.407 13.3199L18.7528 12.9497L19.2375 13.9447Z" fill="#FFCC00"/>
<path d="M19.2375 13.9447L18.8924 12.9716L18.4292 13.1819L19.2375 13.9447Z" fill="#FFCC00"/>
<path d="M18.6497 12.1581L18.3497 13.1457L18.8497 13.2445L18.6497 12.1581Z" fill="#FFCC00"/>
<path d="M18.6497 12.1581L18.9497 13.1457L18.4497 13.2445L18.6497 12.1581Z" fill="#FFCC00"/>
<path d="M19.6008 12.8405L18.557 12.8639L18.6164 13.3641L19.6008 12.8405Z" fill="#FFCC00"/>
<path d="M19.6008 12.8405L18.7424 13.4275L18.4928 12.9884L19.6008 12.8405Z" fill="#FFCC00"/>
<path d="M15.5283 14.8284L16.5721 14.8518L16.5127 15.352L15.5283 14.8284Z" fill="#FFCC00"/>
<path d="M15.5283 14.8284L16.3867 15.4154L16.6363 14.9763L15.5283 14.8284Z" fill="#FFCC00"/>
<path d="M15.8916 15.9327L16.2367 14.9595L16.7 15.1698L15.8916 15.9327Z" fill="#FFCC00"/>
<path d="M15.8916 15.9327L16.7221 15.3078L16.3764 14.9376L15.8916 15.9327Z" fill="#FFCC00"/>
<path d="M17.0672 15.9327L16.2367 15.3078L16.5824 14.9376L17.0672 15.9327Z" fill="#FFCC00"/>
<path d="M17.0672 15.9327L16.7221 14.9595L16.2588 15.1698L17.0672 15.9327Z" fill="#FFCC00"/>
<path d="M16.4794 14.146L16.1794 15.1336L16.6794 15.2324L16.4794 14.146Z" fill="#FFCC00"/>
<path d="M16.4794 14.146L16.7794 15.1336L16.2794 15.2324L16.4794 14.146Z" fill="#FFCC00"/>
<path d="M17.4304 14.8284L16.3867 14.8518L16.4461 15.352L17.4304 14.8284Z" fill="#FFCC00"/>
<path d="M17.4304 14.8284L16.5721 15.4154L16.3225 14.9763L17.4304 14.8284Z" fill="#FFCC00"/>
</svg>
