<svg width="27" height="20" viewBox="0 0 27 20" fill="none" xmlns="http://www.w3.org/2000/svg">
<g clip-path="url(#clip0_9_1513)">
<path fill-rule="evenodd" clip-rule="evenodd" d="M0.000762939 0.0010376H27.0008V20.001H0.000762939V0.0010376Z" fill="white"/>
<path fill-rule="evenodd" clip-rule="evenodd" d="M3.06861 6.42724L5.71143 2.32615L6.41138 2.7592L3.76856 6.86028L3.06861 6.42724ZM4.11853 7.0768L6.76136 2.97572L7.46131 3.40876L4.81848 7.50984L4.11853 7.0768ZM5.16846 7.72636L7.81128 3.62528L8.51123 4.05832L5.86841 8.15941L5.16846 7.72636Z" fill="black"/>
<path fill-rule="evenodd" clip-rule="evenodd" d="M3.06861 6.42724L5.71143 2.32615L6.41138 2.7592L3.76856 6.86028L3.06861 6.42724ZM4.11853 7.0768L6.76136 2.97572L7.46131 3.40876L4.81848 7.50984L4.11853 7.0768ZM5.16846 7.72636L7.81128 3.62528L8.51123 4.05832L5.86841 8.15941L5.16846 7.72636Z" fill="black"/>
<path fill-rule="evenodd" clip-rule="evenodd" d="M18.4903 15.9564L21.1332 11.8553L21.8331 12.2884L19.1903 16.3894L18.4903 15.9564ZM19.5403 16.606L22.1831 12.5049L22.883 12.9379L20.2402 17.039L19.5403 16.606ZM20.5902 17.2555L23.233 13.1544L23.933 13.5875L21.2901 17.6886L20.5902 17.2555Z" fill="black"/>
<path fill-rule="evenodd" clip-rule="evenodd" d="M18.4903 15.9564L21.1332 11.8553L21.8331 12.2884L19.1903 16.3894L18.4903 15.9564ZM19.5403 16.606L22.1831 12.5049L22.883 12.9379L20.2402 17.039L19.5403 16.606ZM20.5902 17.2555L23.233 13.1544L23.933 13.5875L21.2901 17.6886L20.5902 17.2555Z" fill="black"/>
<path fill-rule="evenodd" clip-rule="evenodd" d="M19.4558 13.9361L22.9656 16.2479Z" fill="black"/>
<path d="M19.4558 13.9361L22.9656 16.2479" stroke="white" stroke-width="0.4"/>
<path fill-rule="evenodd" clip-rule="evenodd" d="M9.30195 7.32218C10.0143 6.22373 11.1387 5.45303 12.4276 5.17961C13.7166 4.9062 15.0646 5.15247 16.1751 5.86426C17.2857 6.57604 18.0677 7.69503 18.3492 8.97505C18.6308 10.2551 18.3887 11.5913 17.6764 12.6897L9.30195 7.32218Z" fill="#CD2E3A"/>
<path fill-rule="evenodd" clip-rule="evenodd" d="M9.30195 7.32218C8.58958 8.42062 8.34755 9.75683 8.62908 11.0369C8.91062 12.3169 9.69266 13.4359 10.8032 14.1477C11.9137 14.8594 13.2617 15.1057 14.5507 14.8323C15.8397 14.5589 16.964 13.7882 17.6764 12.6897C18.0325 12.1405 18.1536 11.4724 18.0128 10.8324C17.872 10.1924 17.481 9.63289 16.9258 9.277C16.3705 8.92111 15.6965 8.79797 15.052 8.93468C14.4075 9.07138 13.8453 9.45673 13.4892 10.006L9.30195 7.32218Z" fill="#0047A0"/>
<path d="M13.4892 10.006C14.2309 8.86226 13.8948 7.33432 12.7385 6.59322C11.5823 5.85211 10.0437 6.17848 9.30195 7.32218C8.56024 8.46587 8.8963 9.99381 10.0526 10.7349C11.2088 11.476 12.7474 11.1497 13.4892 10.006Z" fill="#CD2E3A"/>
<path fill-rule="evenodd" clip-rule="evenodd" d="M6.14693 18.0364L3.28537 14.0615L3.96101 13.5969L6.82257 17.5717L6.14693 18.0364ZM7.16039 17.3394L4.29882 13.3646L4.97446 12.9L7.83603 16.8748L7.16039 17.3394ZM8.17384 16.6425L5.31228 12.6677L5.98792 12.2031L8.84948 16.1779L8.17384 16.6425Z" fill="black"/>
<path fill-rule="evenodd" clip-rule="evenodd" d="M6.14693 18.0364L3.28537 14.0615L3.96101 13.5969L6.82257 17.5717L6.14693 18.0364ZM7.16039 17.3394L4.29882 13.3646L4.97446 12.9L7.83603 16.8748L7.16039 17.3394ZM8.17384 16.6425L5.31228 12.6677L5.98792 12.2031L8.84948 16.1779L8.17384 16.6425Z" fill="black"/>
<path fill-rule="evenodd" clip-rule="evenodd" d="M21.0238 7.81685L18.1623 3.84202L18.8379 3.37741L21.6995 7.35224L21.0238 7.81685ZM22.0373 7.11994L19.1757 3.1451L19.8514 2.68049L22.7129 6.65532L22.0373 7.11994ZM23.0507 6.42302L20.1892 2.44818L20.8648 1.98357L23.7264 5.9584L23.0507 6.42302Z" fill="black"/>
<path fill-rule="evenodd" clip-rule="evenodd" d="M21.0238 7.81685L18.1623 3.84202L18.8379 3.37741L21.6995 7.35224L21.0238 7.81685ZM22.0373 7.11994L19.1757 3.1451L19.8514 2.68049L22.7129 6.65532L22.0373 7.11994ZM23.0507 6.42302L20.1892 2.44818L20.8648 1.98357L23.7264 5.9584L23.0507 6.42302Z" fill="black"/>
<path fill-rule="evenodd" clip-rule="evenodd" d="M5.61355 15.4416L6.62302 14.7481ZM19.2414 6.07864L20.4191 5.26949ZM21.4286 4.57593L22.438 3.88238Z" fill="black"/>
<path d="M5.61355 15.4416L6.62302 14.7481M19.2414 6.07864L20.4191 5.26949M21.4286 4.57593L22.438 3.88238" stroke="white" stroke-width="0.4"/>
</g>
<defs>
<clipPath id="clip0_9_1513">
<rect width="27" height="20" fill="white"/>
</clipPath>
</defs>
</svg>
