<svg width="27" height="20" viewBox="0 0 27 20" fill="none" xmlns="http://www.w3.org/2000/svg">
<g clip-path="url(#clip0_9_1708)">
<path fill-rule="evenodd" clip-rule="evenodd" d="M0 0H8.99859V20H0V0Z" fill="#00319C"/>
<path fill-rule="evenodd" clip-rule="evenodd" d="M8.9986 0H18.0014V20H8.9986V0Z" fill="#FFDE00"/>
<path fill-rule="evenodd" clip-rule="evenodd" d="M18.0014 0H27V20H18.0014V0Z" fill="#DE2110"/>
<path fill-rule="evenodd" clip-rule="evenodd" d="M15.2044 13.35L16.2253 14.8083C16.2844 14.8917 16.3392 14.9708 16.2548 15.025C16.1705 15.0792 16.1958 15.2917 16.2548 15.375C16.3688 15.5375 16.508 15.5625 16.5923 15.5083L17.3686 15.025C17.453 14.975 17.4825 14.8375 17.3686 14.675C17.3053 14.5917 17.1155 14.4875 17.0311 14.5417C16.9425 14.5958 16.8834 14.5125 16.8286 14.4333L15.8034 12.975" fill="#FF1900"/>
<path d="M15.2044 13.35L16.2253 14.8083C16.2844 14.8917 16.3392 14.9708 16.2548 15.025C16.1705 15.0792 16.1958 15.2917 16.2548 15.375C16.3688 15.5375 16.508 15.5625 16.5923 15.5083L17.3686 15.025C17.453 14.975 17.4825 14.8375 17.3686 14.675C17.3053 14.5917 17.1155 14.4875 17.0311 14.5417C16.9425 14.5958 16.8834 14.5125 16.8286 14.4333L15.8034 12.975" stroke="black" stroke-width="0.06"/>
<path fill-rule="evenodd" clip-rule="evenodd" d="M15.6051 12.3221C16.0617 12.8343 16.2206 13.4217 15.9603 13.6283C15.7 13.8349 15.1141 13.5867 14.6575 13.0744C14.2009 12.5622 14.0442 11.9731 14.3045 11.7664C14.5648 11.5598 15.1488 11.8059 15.6073 12.3203L15.6051 12.3221Z" fill="#A77B3B" stroke="black" stroke-width="0.06"/>
<path fill-rule="evenodd" clip-rule="evenodd" d="M11.0531 12.7542L10.1461 14.2833C10.0955 14.3667 10.0448 14.45 9.95625 14.4083C9.86766 14.3583 9.67781 14.4792 9.62719 14.5667C9.52594 14.7333 9.56391 14.8667 9.65672 14.9167L10.4667 15.3417C10.5511 15.3875 10.6945 15.35 10.7958 15.1833C10.8422 15.0917 10.8548 14.8792 10.7663 14.8333C10.6777 14.7875 10.7241 14.7 10.7789 14.6167L11.6817 13.0875" fill="#FF1900"/>
<path d="M11.0531 12.7542L10.1461 14.2833C10.0955 14.3667 10.0448 14.45 9.95625 14.4083C9.86766 14.3583 9.67781 14.4792 9.62719 14.5667C9.52594 14.7333 9.56391 14.8667 9.65672 14.9167L10.4667 15.3417C10.5511 15.3875 10.6945 15.35 10.7958 15.1833C10.8422 15.0917 10.8548 14.8792 10.7663 14.8333C10.6777 14.7875 10.7241 14.7 10.7789 14.6167L11.6817 13.0875" stroke="black" stroke-width="0.06"/>
<path fill-rule="evenodd" clip-rule="evenodd" d="M13.9725 11.6917H13.1456C13.1203 11.7167 12.8841 13.175 12.6309 13.7333C12.323 14.4125 11.3991 15.0125 11.3991 15.0125C11.3991 15.0125 11.9517 15.1792 12.1163 15.2875C12.1584 15.275 13.0444 15.0917 13.1456 14.025C13.2469 15.0917 12.5297 15.5792 12.5297 15.5792C12.5297 15.5792 13.5591 15.8708 13.5591 16.55C13.5591 15.8708 14.5884 15.5792 14.5884 15.5792C14.5884 15.5792 14.0738 15.0917 13.9683 14.025C14.1792 15.0917 14.9597 15.275 15.0019 15.2875C15.1664 15.1792 15.7191 15.0125 15.7191 15.0125C15.7191 15.0125 14.7952 14.4125 14.4872 13.7333C14.2341 13.175 13.9978 11.7167 13.9725 11.6917ZM10.4709 6.82916L12.015 7.31667C12.5255 7.31667 13.0444 6.82917 13.0444 6.34167C13.0613 5.25833 12.6309 4.88333 12.5297 4.88333L12.7322 4.69166L12.4242 4.4C12.4242 4.4 12.5297 3.89583 13.5591 3.9125C14.5884 3.93333 14.5884 4.4 14.5884 4.88333C14.5884 5.36666 14.0738 5.37083 14.0738 6.34167C14.0738 6.82917 14.5884 7.31667 15.1031 7.31667L16.6472 6.82916V11.6917H10.4667V6.82916H10.4709Z" fill="#A77B3B" stroke="black" stroke-width="0.06"/>
<path d="M12.8369 7.02378L12.9396 7.31611L13.043 7.02378L13.1457 7.31611L13.3518 7.02378L13.4524 7.3317L13.5579 7.02378L13.7098 7.3317L13.8666 7.02378L13.9693 7.31611L14.0727 7.02378" stroke="black" stroke-width="0.0174531"/>
<path d="M13.2501 5.95599L13.0437 7.02594M13.3518 5.95599V7.02594M13.5582 5.95599V7.02594M13.7646 5.95599L13.8664 7.02594M13.971 5.95599L14.0728 7.02594" stroke="black" stroke-width="0.0168392"/>
<path fill-rule="evenodd" clip-rule="evenodd" d="M9.43575 3.91486C8.4067 4.40045 8.4067 5.37438 8.4067 5.85997C8.44158 6.30167 8.4067 15.58 8.4067 15.58C8.4067 15.58 8.47356 15.0314 8.92123 14.6089L9.43285 14.1233L9.94737 13.6377C10.3253 13.3139 10.4619 12.6637 10.4619 12.1782V5.37438C10.4619 5.37438 10.4619 4.88604 9.43285 3.91486H9.43575Z" fill="#A77B3B" stroke="black" stroke-width="0.06"/>
<path d="M10.4648 5.85995C10.4532 5.85995 9.95027 5.37436 9.95027 5.37436L9.43575 5.85995L8.92122 5.37436L8.40669 5.85995" stroke="black" stroke-width="0.06"/>
<path d="M10.4648 6.34422C10.4532 6.34422 9.95027 6.82981 9.95027 6.82981L9.43575 6.34422L8.92122 6.82981L8.40669 6.34422" stroke="black" stroke-width="0.06"/>
<path d="M10.4648 7.80162C10.4532 7.80162 9.95027 7.31602 9.95027 7.31602L9.43575 7.80162L8.92122 7.31602L8.40669 7.80162" stroke="black" stroke-width="0.06"/>
<path d="M9.94448 5.3731L9.95027 13.638" stroke="black" stroke-width="0.06"/>
<path d="M9.43822 5.85894L9.44402 14.1038" stroke="black" stroke-width="0.06"/>
<path d="M8.92355 5.37529L8.92934 14.6114" stroke="black" stroke-width="0.06"/>
<path fill-rule="evenodd" clip-rule="evenodd" d="M17.6782 3.91486C18.7072 4.40045 18.7072 5.37438 18.7072 5.85997C18.6723 6.30167 18.7072 15.58 18.7072 15.58C18.7072 15.58 18.6403 15.0314 18.1927 14.6089L17.6811 14.1233L17.1665 13.6377C16.7886 13.3139 16.652 12.6637 16.652 12.1782V5.37438C16.652 5.37438 16.652 4.88604 17.6811 3.91486H17.6782Z" fill="#A77B3B" stroke="black" stroke-width="0.06"/>
<path d="M16.6491 5.85995C16.6607 5.85995 17.1636 5.37436 17.1636 5.37436L17.6782 5.85995L18.1927 5.37436L18.7072 5.85995" stroke="black" stroke-width="0.06"/>
<path d="M16.6491 6.34422C16.6607 6.34422 17.1636 6.82981 17.1636 6.82981L17.6782 6.34422L18.1927 6.82981L18.7072 6.34422" stroke="black" stroke-width="0.06"/>
<path d="M16.6491 7.80162C16.6607 7.80162 17.1636 7.31602 17.1636 7.31602L17.6782 7.80162L18.1927 7.31602L18.7072 7.80162" stroke="black" stroke-width="0.06"/>
<path d="M17.1694 5.3731L17.1636 13.638" stroke="black" stroke-width="0.06"/>
<path d="M17.6799 5.85894L17.6741 14.1038" stroke="black" stroke-width="0.06"/>
<path d="M18.1946 5.37529L18.1888 14.6114" stroke="black" stroke-width="0.06"/>
<path fill-rule="evenodd" clip-rule="evenodd" d="M12.2038 12.6196C11.931 13.2375 11.4509 13.6401 11.1369 13.5167C10.823 13.3932 10.7879 12.788 11.0607 12.1701C11.3335 11.5522 11.8163 11.1506 12.1302 11.274C12.4442 11.3975 12.4804 12.0002 12.2065 12.6206L12.2038 12.6196Z" fill="#A77B3B" stroke="black" stroke-width="0.06"/>
<path fill-rule="evenodd" clip-rule="evenodd" d="M10.4667 7.31667H16.6472V10.2333H10.4667V7.31667Z" fill="#FF0000"/>
<path fill-rule="evenodd" clip-rule="evenodd" d="M10.4667 10.2333H16.6472V11.6917C16.6472 12.6625 15.1031 12.6625 13.5591 13.6333C12.0108 12.6667 10.4625 12.6667 10.4625 11.6917V10.2333H10.4667Z" fill="#564DFF"/>
<path d="M10.4682 7.31675H16.6483V11.6953C16.6483 12.6665 15.1047 12.6665 13.5582 13.6404C12.0147 12.6665 10.4682 12.6665 10.4682 11.6926V7.31949V7.31675Z" stroke="#FFFF00" stroke-width="0.168392"/>
<path fill-rule="evenodd" clip-rule="evenodd" d="M12.4238 7.51088C12.4238 7.51088 11.3942 8.22584 11.3942 8.90988C11.3942 9.59392 12.4747 9.82322 12.4747 9.82322C12.4747 9.82322 12.1145 9.82322 12.1145 10.7353C12.1145 11.1926 13.195 10.9646 13.195 11.1926C13.195 11.4206 13.1808 11.9719 13.195 12.3339C13.195 12.5619 12.4747 12.3339 12.4747 12.5619C12.4747 12.6753 13.016 13.246 13.5572 13.246C14.0985 13.246 14.6378 12.6753 14.6378 12.5619C14.6378 12.3339 13.9174 12.5619 13.9174 12.3339V11.1926C13.9174 10.9646 14.9979 11.1926 14.9979 10.7353C14.9979 9.82322 14.6378 9.82322 14.6378 9.82322C14.6378 9.82322 15.7203 9.5952 15.7203 8.90988C15.7203 8.22455 14.6886 7.51088 14.6886 7.51088C14.6886 7.51088 15.2686 8.45385 15.2686 8.90988C15.2686 9.13789 14.9979 9.5952 14.2776 9.5952C14.2776 9.5952 14.0944 9.3659 13.9174 9.5952C13.9174 9.5952 13.7098 9.3659 13.5572 9.5952C13.5043 9.6725 13.4107 9.3659 13.195 9.5952C13.1055 9.65575 13.0322 9.3659 12.8349 9.5952C12.4747 9.5952 11.7543 9.3659 11.7543 8.90988C11.7543 8.45385 12.4238 7.51088 12.4238 7.51088Z" fill="#FFFF00" stroke="black" stroke-width="0.120677"/>
<path fill-rule="evenodd" clip-rule="evenodd" d="M12.445 11.5948C12.3717 11.6411 12.5386 12.3844 12.5874 12.4166C12.6607 12.4617 13.0941 12.4617 13.1653 12.4166C13.2162 12.3844 13.1653 11.6862 13.0941 11.6411C13.0208 11.5948 12.4958 11.5638 12.4429 11.5948H12.445Z" fill="#FFFF00" stroke="black" stroke-width="0.120677"/>
<path fill-rule="evenodd" clip-rule="evenodd" d="M14.6732 11.5948C14.7464 11.6411 14.5796 12.3844 14.5307 12.4166C14.4575 12.4617 14.024 12.4617 13.9528 12.4166C13.9019 12.3844 13.9528 11.6862 14.024 11.6411C14.0973 11.5948 14.6223 11.5638 14.6752 11.5948H14.6732Z" fill="#FFFF00" stroke="black" stroke-width="0.120677"/>
<path fill-rule="evenodd" clip-rule="evenodd" d="M13.1859 11.3237C13.1859 11.3918 13.1465 11.4572 13.0763 11.5054C13.0061 11.5536 12.9109 11.5806 12.8117 11.5806C12.7124 11.5806 12.6172 11.5536 12.547 11.5054C12.4769 11.4572 12.4374 11.3918 12.4374 11.3237C12.4374 11.2555 12.4769 11.1902 12.547 11.142C12.6172 11.0938 12.7124 11.0667 12.8117 11.0667C12.9109 11.0667 13.0061 11.0938 13.0763 11.142C13.1465 11.1902 13.1859 11.2555 13.1859 11.3237Z" fill="#FFFF00" stroke="black" stroke-width="0.144454"/>
<path fill-rule="evenodd" clip-rule="evenodd" d="M14.6753 11.3238C14.6753 11.3919 14.6358 11.4573 14.5657 11.5055C14.4955 11.5537 14.4003 11.5807 14.301 11.5807C14.2018 11.5807 14.1066 11.5537 14.0364 11.5055C13.9662 11.4573 13.9268 11.3919 13.9268 11.3238C13.9268 11.2556 13.9662 11.1903 14.0364 11.1421C14.1066 11.0939 14.2018 11.0668 14.301 11.0668C14.4003 11.0668 14.4955 11.0939 14.5657 11.1421C14.6358 11.1903 14.6753 11.2556 14.6753 11.3238Z" fill="#FFFF00" stroke="black" stroke-width="0.144457"/>
<path fill-rule="evenodd" clip-rule="evenodd" d="M14.2088 12.8125C14.2088 12.875 14.1244 12.925 14.0273 12.925C13.9261 12.925 13.8459 12.875 13.8459 12.8125C13.8459 12.75 13.9303 12.7 14.0273 12.7C14.1244 12.7 14.2088 12.75 14.2088 12.8125ZM13.268 12.8125C13.268 12.875 13.1878 12.925 13.0908 12.925C12.9895 12.925 12.9094 12.875 12.9094 12.8125C12.9094 12.75 12.9895 12.7 13.0908 12.7C13.1878 12.7 13.268 12.75 13.268 12.8125Z" fill="black"/>
<path fill-rule="evenodd" clip-rule="evenodd" d="M13.5585 9.16681L13.3373 8.89113L12.9743 8.93663L13.0253 8.59403L12.7332 8.38794L13.0253 8.17917L12.9743 7.83657L13.3373 7.88475L13.5585 7.60907L13.7797 7.88475L14.1399 7.83657L14.0917 8.17917L14.3809 8.38794L14.0917 8.59671L14.1399 8.93663L13.7769 8.89113L13.5585 9.16681Z" fill="#FFFF00" stroke="black" stroke-width="0.0903568"/>
<path fill-rule="evenodd" clip-rule="evenodd" d="M15.1018 10.233L15.721 10.5266L16.3402 10.233L15.721 9.94224L15.1047 10.233H15.1018Z" fill="#FFFF00" stroke="black" stroke-width="0.0926153"/>
<path fill-rule="evenodd" clip-rule="evenodd" d="M10.6721 10.233L11.2913 10.5266L11.9105 10.233L11.2913 9.94224L10.675 10.233H10.6721Z" fill="#FFFF00" stroke="black" stroke-width="0.0926153"/>
<path fill-rule="evenodd" clip-rule="evenodd" d="M16.0575 11.9726C15.8679 11.8539 15.5486 11.9131 15.3696 12.0101C15.1906 12.1071 15.0116 12.2041 14.9875 12.5556C14.782 12.2178 14.9439 11.9055 15.2161 11.7579C15.3605 11.6909 15.5258 11.676 15.681 11.716C15.8362 11.756 15.9706 11.8481 16.0589 11.975L16.0575 11.9726Z" fill="#FFFF00" stroke="black" stroke-width="0.0926513"/>
<path fill-rule="evenodd" clip-rule="evenodd" d="M11.8045 11.3998C11.8045 11.4511 11.7829 11.5003 11.7445 11.5366C11.7061 11.5729 11.6539 11.5933 11.5996 11.5933C11.5452 11.5933 11.4931 11.5729 11.4547 11.5366C11.4162 11.5003 11.3947 11.4511 11.3947 11.3998C11.3947 11.3486 11.4162 11.2994 11.4547 11.2631C11.4931 11.2268 11.5452 11.2064 11.5996 11.2064C11.6539 11.2064 11.7061 11.2268 11.7445 11.2631C11.7829 11.2994 11.8045 11.3486 11.8045 11.3998Z" fill="#FFFF00" stroke="black" stroke-width="0.0926153"/>
<path fill-rule="evenodd" clip-rule="evenodd" d="M11.5978 12.079C11.5978 12.1303 11.5762 12.1795 11.5378 12.2158C11.4993 12.2521 11.4472 12.2724 11.3929 12.2724C11.3385 12.2724 11.2864 12.2521 11.248 12.2158C11.2095 12.1795 11.1879 12.1303 11.1879 12.079C11.1879 12.0277 11.2095 11.9785 11.248 11.9423C11.2864 11.906 11.3385 11.8856 11.3929 11.8856C11.4472 11.8856 11.4993 11.906 11.5378 11.9423C11.5762 11.9785 11.5978 12.0277 11.5978 12.079Z" fill="#FFFF00" stroke="black" stroke-width="0.0926153"/>
<path fill-rule="evenodd" clip-rule="evenodd" d="M11.4966 11.6915C11.4966 11.7428 11.475 11.792 11.4365 11.8283C11.3981 11.8646 11.346 11.8849 11.2916 11.8849C11.2373 11.8849 11.1851 11.8646 11.1467 11.8283C11.1083 11.792 11.0867 11.7428 11.0867 11.6915C11.0867 11.6402 11.1083 11.591 11.1467 11.5547C11.1851 11.5185 11.2373 11.4981 11.2916 11.4981C11.346 11.4981 11.3981 11.5185 11.4365 11.5547C11.475 11.591 11.4966 11.6402 11.4966 11.6915Z" fill="#FFFF00" stroke="black" stroke-width="0.0926153"/>
<path fill-rule="evenodd" clip-rule="evenodd" d="M12.0113 12.079C12.0113 12.1303 11.9897 12.1795 11.9512 12.2158C11.9128 12.2521 11.8607 12.2724 11.8063 12.2724C11.752 12.2724 11.6998 12.2521 11.6614 12.2158C11.623 12.1795 11.6014 12.1303 11.6014 12.079C11.6014 12.0277 11.623 11.9785 11.6614 11.9423C11.6998 11.906 11.752 11.8856 11.8063 11.8856C11.8607 11.8856 11.9128 11.906 11.9512 11.9423C11.9897 11.9785 12.0113 12.0277 12.0113 12.079Z" fill="#FFFF00" stroke="black" stroke-width="0.0926153"/>
<path fill-rule="evenodd" clip-rule="evenodd" d="M12.1125 11.6915C12.1125 11.7428 12.0909 11.792 12.0525 11.8283C12.014 11.8646 11.9619 11.8849 11.9076 11.8849C11.8532 11.8849 11.8011 11.8646 11.7626 11.8283C11.7242 11.792 11.7026 11.7428 11.7026 11.6915C11.7026 11.6402 11.7242 11.591 11.7626 11.5547C11.8011 11.5185 11.8532 11.4981 11.9076 11.4981C11.9619 11.4981 12.014 11.5185 12.0525 11.5547C12.0909 11.591 12.1125 11.6402 12.1125 11.6915Z" fill="#FFFF00" stroke="black" stroke-width="0.0926153"/>
<path fill-rule="evenodd" clip-rule="evenodd" d="M11.8045 11.7873C11.8045 11.8386 11.7829 11.8878 11.7445 11.9241C11.7061 11.9604 11.6539 11.9808 11.5996 11.9808C11.5452 11.9808 11.4931 11.9604 11.4547 11.9241C11.4162 11.8878 11.3947 11.8386 11.3947 11.7873C11.3947 11.7361 11.4162 11.6869 11.4547 11.6506C11.4931 11.6143 11.5452 11.5939 11.5996 11.5939C11.6539 11.5939 11.7061 11.6143 11.7445 11.6506C11.7829 11.6869 11.8045 11.7361 11.8045 11.7873Z" fill="#FFFF00" stroke="black" stroke-width="0.0926153"/>
<path fill-rule="evenodd" clip-rule="evenodd" d="M12.5634 5.01667C12.0403 5.01667 11.9728 5.1 11.7366 5.17917C11.7366 4.95417 12.3187 4.69167 12.8334 4.69167C12.8334 4.85417 12.6984 5.01667 12.5634 5.01667Z" fill="#DA4500"/>
<path fill-rule="evenodd" clip-rule="evenodd" d="M13.3523 4.5C13.3523 4.60417 13.2595 4.69167 13.1456 4.69167C13.0317 4.69167 12.9389 4.60417 12.9389 4.49584C12.9389 4.3875 13.0317 4.30417 13.1456 4.30417C13.2595 4.30417 13.3523 4.3875 13.3523 4.49584V4.5Z" fill="#CAC9C7"/>
<path fill-rule="evenodd" clip-rule="evenodd" d="M11.1891 3.81884V4.10965H11.7036V5.56642H12.0146V4.10965H12.5292V3.81884H12.0146V3.42927H11.7007V3.81884H11.1862H11.1891Z" fill="#FFFF00" stroke="black" stroke-width="0.0926153"/>
<path fill-rule="evenodd" clip-rule="evenodd" d="M12.8377 4.69167C12.4189 4.66804 11.9995 4.72318 11.6016 4.85417C11.6016 4.55417 11.9559 4.20417 12.5634 4.20417C12.6984 4.20417 12.8377 4.52917 12.8377 4.69167Z" fill="#DA4500"/>
<path fill-rule="evenodd" clip-rule="evenodd" d="M7.47812 9.85368C7.32986 9.53806 7.3333 9.43733 7.59704 9.79846L10.774 15.7469L10.6767 15.774L7.47976 9.85492L7.47812 9.85368Z" fill="#008500" stroke="black" stroke-width="0.0321037"/>
<path fill-rule="evenodd" clip-rule="evenodd" d="M9.63562 13.7667C9.66937 13.325 8.85093 12.85 8.81718 12.8792C8.78765 12.9125 8.86781 13.1708 9.0239 13.3C8.72859 13.15 8.4164 13.0583 8.40797 13.1208C8.38265 13.2125 8.87203 13.4208 8.91422 13.5042C8.91422 13.5625 8.5514 13.5542 8.55984 13.6125C8.56828 13.6708 9.585 14.1792 9.63562 13.7667ZM8.81718 12.4833C8.85093 12.0417 8.0325 11.5667 8.00297 11.5958C7.96922 11.625 8.04937 11.8833 8.20547 12.0167C7.91015 11.8667 7.59796 11.7708 7.58953 11.8375C7.56843 11.925 8.05359 12.1375 8.09578 12.2208C8.1 12.2792 7.73718 12.2708 7.7414 12.3292C7.74984 12.3875 8.76656 12.8917 8.81718 12.4833ZM8.19281 11.3167C8.22656 10.875 7.40812 10.4 7.37437 10.4292C7.34484 10.4583 7.425 10.7167 7.58109 10.85C7.28578 10.7 6.97359 10.6042 6.96515 10.6708C6.94406 10.7583 7.42922 10.9708 7.4714 11.0542C7.4714 11.1125 7.11281 11.1042 7.11703 11.1625C7.12547 11.2208 8.14218 11.7292 8.19281 11.3167ZM7.57687 10.05C7.6064 9.6125 6.79218 9.13333 6.75843 9.1625C6.72468 9.19583 6.80906 9.45417 6.96093 9.5875C6.66562 9.43333 6.35343 9.34167 6.34922 9.40833C6.3239 9.49583 6.81328 9.70833 6.85125 9.7875C6.85546 9.84583 6.49265 9.84167 6.50109 9.9C6.50531 9.95833 7.52203 10.4625 7.57687 10.05Z" fill="#008F00"/>
<path fill-rule="evenodd" clip-rule="evenodd" d="M7.78782 9.99583C8.18438 9.75833 8.10422 8.85417 8.06204 8.84583C8.01563 8.84167 7.84266 9.05417 7.82157 9.25417C7.77516 8.9375 7.66969 8.64583 7.61063 8.67917C7.52204 8.7125 7.6275 9.20833 7.5811 9.2875C7.53891 9.32917 7.32797 9.04583 7.28579 9.0875C7.23516 9.12917 7.40391 10.2 7.79204 9.99583H7.78782ZM8.36157 11.1042C8.81719 11.0042 9.0661 10.1292 9.02391 10.1083C8.98172 10.0875 8.74547 10.2333 8.65688 10.4167C8.72438 10.1042 8.7286 9.79583 8.65688 9.80833C8.55985 9.8125 8.48813 10.3125 8.41641 10.3708C8.36157 10.3958 8.26032 10.0667 8.20547 10.0875C8.14641 10.1125 7.92704 11.175 8.36157 11.1042ZM9.045 12.2375C9.46266 12.0375 9.46688 11.1292 9.42469 11.1208C9.3825 11.1083 9.19266 11.3083 9.15047 11.5042C9.1336 11.1833 9.05766 10.8875 8.99438 10.9167C8.90157 10.9417 8.96063 11.4417 8.91 11.5167C8.85938 11.5542 8.67797 11.2542 8.62735 11.2917C8.57672 11.325 8.64422 12.4083 9.04922 12.2375H9.045ZM9.7875 13.7208C10.222 13.5583 10.3275 12.6583 10.2853 12.6417C10.2431 12.6292 10.0322 12.8083 9.96891 13C9.98579 12.6792 9.9436 12.375 9.8761 12.4C9.77907 12.4167 9.7875 12.9208 9.72844 12.9917C9.6736 13.0208 9.52594 12.7083 9.47532 12.7417C9.42047 12.7667 9.36985 13.8542 9.7875 13.7208Z" fill="#008F00"/>
<path fill-rule="evenodd" clip-rule="evenodd" d="M10.7445 15.2669C10.634 15.4537 10.2844 15.4706 9.9595 15.2994C9.63461 15.1282 9.46641 14.8385 9.57694 14.6517C9.68747 14.4648 10.0396 14.4493 10.3619 14.6191C10.6843 14.789 10.855 15.08 10.7445 15.2669Z" fill="#FF1900" stroke="black" stroke-width="0.05"/>
<path fill-rule="evenodd" clip-rule="evenodd" d="M19.1328 9.00869L19.1875 8.86927L19.3348 8.91509L19.3895 8.77566L19.5368 8.82148L19.4829 8.95894L19.6344 9.00607L19.579 9.14746L19.4274 9.10033L19.2911 9.44792L19.1438 9.4021L19.2801 9.05451L19.1328 9.00869ZM18.8164 10.2367L18.9637 10.2825L17.3806 14.318L17.2333 14.2722L18.8164 10.2367Z" fill="#FFFF00" stroke="black" stroke-width="0.0321346"/>
<path fill-rule="evenodd" clip-rule="evenodd" d="M17.1845 14.1799L17.4834 14.2729L17.0466 15.3863L16.7477 15.2933L17.1845 14.1799ZM18.9417 9.4957L19.39 9.63513C19.6868 9.72742 19.0138 10.3774 19.0138 10.3774L18.7171 10.2851C18.7171 10.2851 18.6429 9.40275 18.9417 9.4957ZM19.3537 9.50487C19.3306 9.56378 19.2469 9.59062 19.1648 9.56509C19.0827 9.53956 19.0339 9.47148 19.0562 9.41453C19.0786 9.35758 19.1631 9.32878 19.2452 9.35431C19.3272 9.37984 19.3761 9.44792 19.353 9.50683L19.3537 9.50487Z" fill="#FFFF00" stroke="black" stroke-width="0.0321346"/>
<path fill-rule="evenodd" clip-rule="evenodd" d="M17.4243 14.7583C17.5495 14.9367 17.405 15.2376 17.0948 15.4315C16.7846 15.6254 16.4346 15.6335 16.3094 15.4551C16.1842 15.2767 16.3311 14.9743 16.6389 14.7819C16.9467 14.5895 17.2991 14.5799 17.4243 14.7583Z" fill="#FF1900" stroke="black" stroke-width="0.05"/>
</g>
<defs>
<clipPath id="clip0_9_1708">
<rect width="27" height="20" fill="white"/>
</clipPath>
</defs>
</svg>
