<svg width="27" height="20" viewBox="0 0 27 20" fill="none" xmlns="http://www.w3.org/2000/svg">
<g clip-path="url(#clip0_9_1775)">
<path fill-rule="evenodd" clip-rule="evenodd" d="M0 0H27V20H0V0Z" fill="#00843D"/>
<path fill-rule="evenodd" clip-rule="evenodd" d="M8.72622 5.37109C9.82969 5.89453 11.1428 5.37109 11.6174 4.64453C12.1078 3.96484 12.1671 2.82813 11.3247 1.78516C12.6299 2.85547 12.9226 4.07031 12.27 5.07031C11.3999 6.21484 9.47769 6.17969 8.72622 5.37109Z" fill="white"/>
<path fill-rule="evenodd" clip-rule="evenodd" d="M10.684 2.71094L10.9055 2.71484L10.7314 2.85156L10.7987 3.07031L10.6128 2.94141L10.4348 3.07031L10.4941 2.85547L10.3162 2.71875L10.5376 2.71484L10.6128 2.5L10.684 2.71094ZM9.58843 4.07031H9.80992L9.63589 4.21094L9.70313 4.42578L9.51724 4.29688L9.33531 4.42969L9.39859 4.21094L9.22061 4.07813L9.44209 4.07031L9.51328 3.85547L9.58843 4.07031ZM9.65962 3H9.88506L9.70708 3.14063L9.77432 3.35547L9.59239 3.22656L9.41045 3.35938L9.47373 3.14063L9.29576 3.00391L9.51724 3L9.58843 2.78516L9.65962 3ZM9.65962 1.92578H9.88506L9.70313 2.07031L9.77036 2.28516L9.58843 2.16016L9.4065 2.28906L9.46978 2.07422L9.2918 1.9375L9.51328 1.93359L9.58448 1.71875L9.65962 1.92578ZM8.44541 3.28516H8.6669L8.48892 3.42578L8.55616 3.64062L8.37422 3.51172L8.19229 3.64453L8.25557 3.42578L8.07759 3.29297L8.29908 3.28516L8.37027 3.07031L8.44541 3.28516Z" fill="white"/>
<path fill-rule="evenodd" clip-rule="evenodd" d="M0.191162 0H6.70122V20H0.191162V0Z" fill="#CA3745"/>
<path fill-rule="evenodd" clip-rule="evenodd" d="M0.191162 5.21484V5.07031L0.460107 4.71484L0.408691 4.64063L0.566894 4.42969L0.515479 4.35547L0.408691 4.5L0.35332 4.42969L0.733008 3.92969L0.788379 4L0.733008 4.07031L0.84375 4.21875L1.1127 3.85938L0.839795 3.51172L0.733008 3.64453L0.788379 3.71875L0.733008 3.78906L0.35332 3.28906L0.408691 3.21875L0.515479 3.35938L0.57085 3.28906L0.408691 3.07422L0.460107 3.00391L0.191162 2.64453V2.5L0.57085 3L0.515479 3.07031L0.677637 3.28516L0.57085 3.42969L0.677637 3.57031L0.84375 3.35938L1.22739 3.86719L0.84375 4.35938L0.685547 4.14453L0.574805 4.28906L0.681592 4.43359L0.523389 4.64453L0.574805 4.71875L0.195117 5.21875L0.191162 5.21484Z" fill="#FAAE29"/>
<path fill-rule="evenodd" clip-rule="evenodd" d="M0.191162 3.42969L0.246533 3.57031V3.78906H0.408691L0.519434 3.85938L0.408691 3.93359H0.250488V4.14453L0.195117 4.28906V3.42969H0.191162Z" fill="#FAAE29"/>
<path fill-rule="evenodd" clip-rule="evenodd" d="M0.191162 8.64453V8.5L0.460107 8.14453L0.408691 8.07031L0.566895 7.85547L0.515479 7.78516L0.408691 7.92969L0.35332 7.85547L0.733008 7.35547L0.788379 7.42969L0.733008 7.5L0.84375 7.64453L1.1127 7.28516L0.839795 6.9375L0.733008 7.07031L0.788379 7.14453L0.733008 7.21484L0.35332 6.71484L0.408691 6.64063L0.515479 6.78125L0.57085 6.71094L0.408691 6.49609L0.460107 6.42578L0.191162 6.06641V5.92578L0.57085 6.42578L0.515479 6.49609L0.677637 6.71094L0.57085 6.85156L0.677637 6.99609L0.839795 6.78125L1.22344 7.28906L0.839795 7.78125L0.681592 7.56641L0.57085 7.71094L0.677637 7.85156L0.519434 8.06641L0.57085 8.14063L0.191162 8.64063V8.64453Z" fill="#FAAE29"/>
<path fill-rule="evenodd" clip-rule="evenodd" d="M0.191162 6.85547L0.246533 7V7.21484H0.408691L0.519434 7.28516L0.408691 7.35547H0.250488V7.57031L0.195117 7.71484V6.85547H0.191162Z" fill="#FAAE29"/>
<path fill-rule="evenodd" clip-rule="evenodd" d="M0.191162 12.0703V11.9297L0.460107 11.5703L0.408691 11.5L0.566895 11.2852L0.515479 11.2148L0.408691 11.3555L0.35332 11.2852L0.733008 10.7852L0.788379 10.8555L0.733008 10.9297L0.84375 11.0742L1.1127 10.7148L0.839795 10.3633L0.733008 10.5L0.788379 10.5703L0.733008 10.6406L0.35332 10.1406L0.408691 10.0703L0.515479 10.2148L0.57085 10.1406L0.408691 9.92969L0.460107 9.85547L0.191162 9.5V9.35547L0.57085 9.85547L0.515479 9.92969L0.677637 10.1406L0.57085 10.2852L0.677637 10.4297L0.84375 10.2148L1.22344 10.7227L0.839795 11.2148L0.681592 11L0.57085 11.1406L0.677637 11.2852L0.519434 11.5L0.57085 11.5703L0.191162 12.0703Z" fill="#FAAE29"/>
<path fill-rule="evenodd" clip-rule="evenodd" d="M0.191162 10.2852L0.250488 10.4297V10.6445H0.408691L0.519434 10.7148L0.408691 10.7813H0.250488V10.9961L0.195117 11.1406V10.2813L0.191162 10.2852Z" fill="#FAAE29"/>
<path fill-rule="evenodd" clip-rule="evenodd" d="M0.191162 15.2852V15.1406L0.460107 14.7852L0.408691 14.7148L0.566895 14.5L0.515479 14.4297L0.408691 14.5703L0.35332 14.5L0.733008 14L0.788379 14.0703L0.733008 14.1406L0.84375 14.2852L1.1127 13.9297L0.839795 13.5781L0.733008 13.7148L0.788379 13.7852L0.733008 13.8555L0.35332 13.3555L0.408691 13.2852L0.515479 13.4297L0.57085 13.3555L0.408691 13.1406L0.460107 13.0703L0.191162 12.7148V12.5703L0.57085 13.0703L0.515479 13.1406L0.677637 13.3555L0.57085 13.5L0.677637 13.6406L0.84375 13.4297L1.22344 13.9375L0.839795 14.4297L0.681592 14.2148L0.57085 14.3555L0.677637 14.5L0.519434 14.7148L0.57085 14.7852L0.191162 15.2852Z" fill="#FAAE29"/>
<path fill-rule="evenodd" clip-rule="evenodd" d="M0.191162 13.5L0.246533 13.6406V13.8555H0.408691L0.519434 13.9297L0.408691 14H0.250488V14.2148L0.195117 14.3555V13.4961L0.191162 13.5Z" fill="#FAAE29"/>
<path fill-rule="evenodd" clip-rule="evenodd" d="M6.70122 5.21484V5.07031L6.43228 4.71484L6.48765 4.64063L6.32549 4.42969L6.3769 4.35547L6.48765 4.5L6.54302 4.42969L6.16333 3.92969L6.10796 4L6.16333 4.07031L6.04863 4.21484L5.78364 3.85547L6.05259 3.50781L6.16333 3.64062L6.10796 3.71484L6.15938 3.78516L6.53906 3.28516L6.48765 3.21484L6.3769 3.35547L6.32549 3.28516L6.48369 3.07031L6.43228 3L6.70122 2.64062V2.5L6.32549 3L6.3769 3.07031L6.2187 3.28516L6.32549 3.42969L6.21475 3.57031L6.05259 3.35547L5.66895 3.86328L6.05259 4.35547L6.21475 4.14063L6.32549 4.28516L6.21475 4.42969L6.3769 4.64063L6.32549 4.71484L6.70122 5.21484Z" fill="#FAAE29"/>
<path fill-rule="evenodd" clip-rule="evenodd" d="M6.70122 3.42969L6.64585 3.57031V3.78906H6.48765L6.3769 3.85938L6.48369 3.93359H6.64585V4.14453L6.70122 4.28906V3.42969Z" fill="#FAAE29"/>
<path fill-rule="evenodd" clip-rule="evenodd" d="M6.721 8.64453V8.5L6.45205 8.14453L6.50347 8.07031L6.34526 7.85547L6.39668 7.78516L6.50347 7.92969L6.55884 7.85547L6.17915 7.35547L6.12378 7.42969L6.17915 7.5L6.06841 7.64453L5.79946 7.28516L6.07236 6.9375L6.17915 7.07031L6.12378 7.14063L6.17915 7.21484L6.55884 6.71484L6.50347 6.64063L6.39668 6.78516L6.34131 6.71484L6.50347 6.5L6.45205 6.42969L6.721 6.07031V5.92969L6.34131 6.42969L6.39668 6.5L6.23452 6.71484L6.34131 6.85547L6.23452 7L6.07236 6.78516L5.68872 7.29297L6.07236 7.78516L6.23057 7.57031L6.34131 7.71484L6.23452 7.85547L6.39272 8.07031L6.34131 8.14063L6.721 8.64063V8.64453Z" fill="#FAAE29"/>
<path fill-rule="evenodd" clip-rule="evenodd" d="M6.721 6.85547L6.66563 7V7.21484H6.49951L6.38877 7.28516L6.49951 7.35547H6.65771V7.57031L6.71704 7.71484V6.85547H6.721Z" fill="#FAAE29"/>
<path fill-rule="evenodd" clip-rule="evenodd" d="M6.70122 12.0703V11.9297L6.43228 11.5703L6.48765 11.5L6.32549 11.2852L6.3769 11.2148L6.48765 11.3555L6.54302 11.2852L6.16333 10.7852L6.10796 10.8555L6.16333 10.9297L6.04863 11.0742L5.78364 10.7148L6.05259 10.3633L6.16333 10.5L6.10796 10.5703L6.15938 10.6406L6.53906 10.1406L6.48765 10.0703L6.3769 10.2148L6.32549 10.1406L6.48369 9.92969L6.43228 9.85547L6.70122 9.5V9.35547L6.32549 9.85547L6.3769 9.92969L6.2187 10.1406L6.32549 10.2852L6.21475 10.4297L6.05259 10.2148L5.66895 10.7227L6.05259 11.2148L6.21475 11L6.32549 11.1406L6.21475 11.2852L6.3769 11.5L6.32549 11.5703L6.69727 12.0703H6.70122Z" fill="#FAAE29"/>
<path fill-rule="evenodd" clip-rule="evenodd" d="M6.70122 10.2852L6.64585 10.4297V10.6445H6.48765L6.3769 10.7148L6.48369 10.7852H6.64585V11L6.70122 11.1445V10.2852Z" fill="#FAAE29"/>
<path fill-rule="evenodd" clip-rule="evenodd" d="M6.70122 15.1406L6.43228 14.7852L6.48765 14.7148L6.32549 14.5L6.3769 14.4297L6.48765 14.5703L6.54302 14.5L6.16333 14L6.10796 14.0703L6.16333 14.1406L6.04863 14.2852L5.78364 13.9297L6.05259 13.5781L6.16333 13.7148L6.10796 13.7852L6.15938 13.8555L6.53906 13.3594L6.48765 13.2891L6.3769 13.4336L6.32549 13.3594L6.48369 13.1445L6.43228 13.0742L6.70122 12.7188V12.5742L6.32549 13.0742L6.3769 13.1445L6.2187 13.3594L6.32549 13.5039L6.21475 13.6445L6.05259 13.4336L5.66895 13.9414L6.05259 14.4336L6.21475 14.2188L6.32549 14.3594L6.21475 14.5039L6.3769 14.7188L6.32549 14.7891L6.70122 15.2891V15.1406Z" fill="#FAAE29"/>
<path fill-rule="evenodd" clip-rule="evenodd" d="M6.70122 13.5L6.64585 13.6406V13.8555H6.48765L6.3769 13.9297L6.48369 14H6.64585V14.2148L6.70122 14.3555V13.4961V13.5Z" fill="#FAAE29"/>
<path fill-rule="evenodd" clip-rule="evenodd" d="M0.191165 1.21484L0.46011 0.855469L0.408694 0.785156L0.566898 0.570313L0.515482 0.5L0.408694 0.644531L0.353323 0.570313L0.733011 0.0703125L0.788382 0.144531L0.733011 0.214844L0.843753 0.359375L1.1127 0H1.22344L0.843753 0.5L0.67764 0.285156L0.570853 0.429688L0.67764 0.570313L0.519437 0.785156L0.566898 0.859375L0.191165 1.35938V1.21484ZM0.519437 0L0.408694 0.0703125H0.250491V0.285156L0.18721 0.429688V0H0.519437ZM6.70122 1.35547V1.21484L6.43228 0.855469L6.48765 0.785156L6.32549 0.570313L6.37691 0.5L6.48765 0.644531L6.53907 0.570313L6.15938 0.0703125L6.10796 0.144531L6.15938 0.214844L6.04864 0.359375L5.77969 0H5.66895L6.05259 0.5L6.21475 0.285156L6.32549 0.429688L6.21475 0.570313L6.37691 0.785156L6.32549 0.855469L6.70122 1.35547ZM6.70122 0H6.37691L6.4837 0.0703125H6.64585V0.285156L6.70122 0.429688V0ZM2.90435 19.7148C2.90435 19.7148 3.14165 19.3086 3.727 19.1875C4.31631 19.0625 4.41914 19.457 4.75533 19.457C5.09151 19.457 5.62544 19.1836 5.62544 19.1836C5.62544 19.1836 5.09151 19.7031 4.67622 19.6914C4.26885 19.6797 4.13042 19.418 3.70723 19.457C3.28799 19.4961 2.90435 19.7266 2.90435 19.7148Z" fill="#FAAE29"/>
<path fill-rule="evenodd" clip-rule="evenodd" d="M4.03946 19.7148C4.03946 19.7148 3.80611 19.3086 3.22076 19.1875C2.62749 19.0625 2.52862 19.457 2.19243 19.457C1.85625 19.457 1.32232 19.1836 1.32232 19.1836C1.32232 19.1836 1.85625 19.7031 2.26758 19.6914C2.67891 19.6797 2.82129 19.418 3.23658 19.457C3.65977 19.4961 4.03946 19.7266 4.03946 19.7148Z" fill="#FAAE29"/>
<path fill-rule="evenodd" clip-rule="evenodd" d="M2.11729 19.043C2.06587 18.9375 1.93535 18.4688 2.00259 18.4102C2.10938 18.3711 2.38623 18.8516 2.35855 19.2773C2.17661 19.375 1.56753 19.2383 1.57149 19.1133C1.61499 18.9375 1.96304 18.9961 2.11729 19.043Z" fill="#FAAE29"/>
<path fill-rule="evenodd" clip-rule="evenodd" d="M1.74551 18.6328C1.71387 18.5156 1.6585 18.0234 1.7376 17.9844C1.84439 17.9766 2.03819 18.5195 1.94722 18.9297C1.75342 18.9766 1.17598 18.6758 1.20367 18.5547C1.27486 18.3984 1.59917 18.5469 1.74551 18.6328Z" fill="#FAAE29"/>
<path fill-rule="evenodd" clip-rule="evenodd" d="M1.44492 18.1797C1.42119 18.0547 1.41328 17.5547 1.49239 17.5313C1.59917 17.5391 1.74551 18.1094 1.61895 18.5039C1.42119 18.5195 0.875394 18.1289 0.914944 18.0156C0.994046 17.8672 1.31045 18.0664 1.44492 18.1797Z" fill="#FAAE29"/>
<path fill-rule="evenodd" clip-rule="evenodd" d="M1.20762 17.6953C1.19971 17.5664 1.24717 17.0703 1.33023 17.0625C1.43701 17.0898 1.51216 17.6836 1.33814 18.0469C1.14434 18.0234 0.649954 17.5273 0.705325 17.4219C0.800247 17.293 1.08897 17.5547 1.20762 17.6953Z" fill="#FAAE29"/>
<path fill-rule="evenodd" clip-rule="evenodd" d="M1.04151 17.1836C1.04942 17.0547 1.15225 16.5781 1.23531 16.582C1.33418 16.6328 1.34605 17.2305 1.13643 17.5586C0.946585 17.4961 0.507571 16.9141 0.570853 16.8164C0.68555 16.707 0.938675 17.0234 1.04546 17.1836H1.04151Z" fill="#FAAE29"/>
<path fill-rule="evenodd" clip-rule="evenodd" d="M1.08897 16.6016C1.0771 17.1094 0.982181 17.1172 0.812112 16.7422C0.733011 16.5977 0.725101 16.0117 0.792337 15.9883C0.891214 15.9883 1.08501 16.4063 1.08897 16.6016Z" fill="#FAAE29"/>
<path fill-rule="evenodd" clip-rule="evenodd" d="M4.79883 19.1016C4.85025 18.9922 4.98076 18.5234 4.91353 18.4648C4.80674 18.4258 4.53384 18.9023 4.55757 19.332C4.7395 19.4297 5.35254 19.293 5.34463 19.168C5.30113 18.9922 4.95703 19.0508 4.79883 19.0977V19.1016Z" fill="#FAAE29"/>
<path fill-rule="evenodd" clip-rule="evenodd" d="M5.17061 18.6875C5.2062 18.5703 5.25762 18.0781 5.18247 18.0391C5.07569 18.0313 4.87793 18.5703 4.97285 18.9844C5.1627 19.0313 5.7441 18.7305 5.71245 18.6094C5.64522 18.4492 5.31695 18.6016 5.17061 18.6875Z" fill="#FAAE29"/>
<path fill-rule="evenodd" clip-rule="evenodd" d="M5.47119 18.2344C5.49493 18.1094 5.50284 17.6094 5.42373 17.5859C5.31695 17.5938 5.17061 18.1602 5.30113 18.5547C5.49888 18.5703 6.04468 18.1836 6.00513 18.0664C5.91812 17.918 5.60962 18.1211 5.47119 18.2344Z" fill="#FAAE29"/>
<path fill-rule="evenodd" clip-rule="evenodd" d="M5.7085 17.7461C5.71641 17.6211 5.66895 17.125 5.58589 17.1172C5.4791 17.1445 5.40396 17.7383 5.57798 18.1016C5.77574 18.0781 6.26617 17.582 6.21475 17.4766C6.11587 17.3438 5.83111 17.6094 5.7085 17.7461Z" fill="#FAAE29"/>
<path fill-rule="evenodd" clip-rule="evenodd" d="M5.87461 17.2344C5.87066 17.1094 5.76387 16.6289 5.68477 16.6367C5.58194 16.6836 5.57007 17.2852 5.78365 17.6133C5.97349 17.5508 6.40855 16.9688 6.34527 16.8711C6.23057 16.7617 5.97745 17.0781 5.87066 17.2344H5.87461Z" fill="#FAAE29"/>
<path fill-rule="evenodd" clip-rule="evenodd" d="M5.82715 16.6562C5.84297 17.1641 5.93394 17.168 6.10401 16.793C6.18311 16.6523 6.19102 16.0625 6.12378 16.043C6.02491 16.043 5.83111 16.4609 5.82715 16.6562Z" fill="#FAAE29"/>
<path fill-rule="evenodd" clip-rule="evenodd" d="M5.69231 12.8483H5.36859V13.0628H5.05664V13.2772H3.80884L3.59695 13.4978L3.70289 13.6082H4.22673L4.32679 13.4978H3.80884L3.9089 13.3875H4.63874L4.32679 13.7123H3.60283L3.39683 13.6082L3.18494 13.7123H2.45509L2.14314 13.3875H2.87299L2.97893 13.4978H2.45509L2.56104 13.6082H3.08488L3.18494 13.4978L2.97893 13.2772H1.83119V13.0628H1.51924V12.8483H1.20729V11.8678H1.51924V11.6533H1.83119V11.4327H2.97893L3.18494 11.2182L3.08488 11.1079H2.56104L2.45509 11.2182H2.97893L2.87299 11.3224H2.14314L2.45509 10.9976H3.19082L3.40271 11.1079L3.60872 10.9976H4.33857L4.65052 11.3224H3.92067L3.82061 11.2182H4.33857L4.23262 11.1079H3.71466L3.60283 11.2182L3.81472 11.4327H5.06253V11.6533H5.37448V11.8678H5.69231V12.8483Z" fill="#CA3745" stroke="black" stroke-width="0.0179057"/>
<path fill-rule="evenodd" clip-rule="evenodd" d="M1.31181 11.9819V12.7418H1.62376V12.9563H1.93571V13.1708H2.98043L3.39832 13.4986L3.81327 13.1738H4.96099V12.9594L5.27294 12.9563V12.7418H5.59077V11.9789H5.27588V11.7644H4.96394V11.5438H3.81621L3.40126 11.219L2.98337 11.5438H1.93865V11.7644H1.6267V11.9789H1.31476L1.31181 11.9819Z" fill="#00843D" stroke="#FAAE29" stroke-width="0.06"/>
<path fill-rule="evenodd" clip-rule="evenodd" d="M2.77032 11.6501L2.14551 12.1938V11.6501H2.77032ZM4.01993 11.6501L4.6487 12.1938V11.6501H4.01993ZM2.77032 13.0635L2.14551 12.5199V13.0635H2.77032ZM4.01993 13.0635L4.6487 12.5199V13.0635H4.01993ZM4.22952 11.9763L4.01993 12.1938H4.43911L4.22952 11.9763ZM2.56073 11.9763L2.3551 12.1938H2.77032L2.56073 11.9763ZM2.56073 12.7374L2.3551 12.5199H2.77032L2.56073 12.7374ZM4.22952 12.7374L4.01993 12.5199H4.43911L4.22952 12.7374Z" fill="#CA3745"/>
<path fill-rule="evenodd" clip-rule="evenodd" d="M3.39512 13.281L3.18554 13.0635H3.60471L3.39512 13.281ZM3.39512 12.1938L3.18554 11.9763H3.60471L3.39512 12.1938ZM3.39512 11.4327L3.18554 11.6551H3.60471L3.39512 11.4327ZM3.39512 12.5199L3.18554 12.7374H3.60471L3.39512 12.5199Z" fill="#FAAE29"/>
<path fill-rule="evenodd" clip-rule="evenodd" d="M4.02221 12.1964H4.44305V12.3037H4.02516L4.02221 12.1964Z" fill="#FAAE29"/>
<path fill-rule="evenodd" clip-rule="evenodd" d="M2.45954 12.3037H2.66554V12.414H2.45954V12.3037ZM4.12816 12.3037H4.33416V12.414H4.12816V12.3037Z" fill="#CC0000"/>
<path fill-rule="evenodd" clip-rule="evenodd" d="M3.18938 11.6541H3.60432V11.7613H3.18938V11.6541ZM3.18938 11.8686H3.60432V11.9789H3.18938V11.8686Z" fill="#990000"/>
<path fill-rule="evenodd" clip-rule="evenodd" d="M3.08343 11.7613H3.71027V11.8716H3.08343V11.7613ZM3.18938 12.7418H3.60432V12.846H3.18938V12.7418ZM3.18938 12.9563H3.60432V13.0635H3.18938V12.9563ZM3.08343 12.8491H3.71027V12.9563H3.08343V12.8491Z" fill="#990000"/>
<path fill-rule="evenodd" clip-rule="evenodd" d="M4.02221 12.414H4.44305V12.5212H4.02516L4.02221 12.414ZM2.3536 12.1964H2.77149V12.3037H2.3536V12.1964ZM2.3536 12.4109H2.77149V12.5212H2.3536V12.4109ZM2.2506 12.3037H2.4566V12.414H2.2506V12.3037ZM2.66849 12.3037H2.87449V12.414H2.66849V12.3037ZM3.91921 12.3037H4.12522V12.414H3.91921V12.3037ZM4.3371 12.3037H4.5431V12.414H4.3371V12.3037Z" fill="#FAAE29"/>
<path d="M3.14091 12.9251C3.15553 12.9251 3.16739 12.9127 3.16739 12.8975C3.16739 12.8823 3.15553 12.8699 3.14091 12.8699C3.12628 12.8699 3.11442 12.8823 3.11442 12.8975C3.11442 12.9127 3.12628 12.9251 3.14091 12.9251Z" fill="white"/>
<path d="M3.39795 12.9251C3.41258 12.9251 3.42443 12.9127 3.42443 12.8975C3.42443 12.8823 3.41258 12.8699 3.39795 12.8699C3.38332 12.8699 3.37146 12.8823 3.37146 12.8975C3.37146 12.9127 3.38332 12.9251 3.39795 12.9251Z" fill="white"/>
<path d="M3.65894 12.9251C3.67357 12.9251 3.68543 12.9127 3.68543 12.8975C3.68543 12.8823 3.67357 12.8699 3.65894 12.8699C3.64432 12.8699 3.63246 12.8823 3.63246 12.8975C3.63246 12.9127 3.64432 12.9251 3.65894 12.9251Z" fill="white"/>
<path d="M3.24372 12.8213C3.25835 12.8213 3.27021 12.8089 3.27021 12.7937C3.27021 12.7785 3.25835 12.7661 3.24372 12.7661C3.2291 12.7661 3.21724 12.7785 3.21724 12.7937C3.21724 12.8089 3.2291 12.8213 3.24372 12.8213Z" fill="white"/>
<path d="M3.55217 12.8213C3.5668 12.8213 3.57866 12.8089 3.57866 12.7937C3.57866 12.7785 3.5668 12.7661 3.55217 12.7661C3.53755 12.7661 3.52569 12.7785 3.52569 12.7937C3.52569 12.8089 3.53755 12.8213 3.55217 12.8213Z" fill="white"/>
<path d="M3.23977 13.0338C3.2544 13.0338 3.26626 13.0214 3.26626 13.0062C3.26626 12.991 3.2544 12.9786 3.23977 12.9786C3.22514 12.9786 3.21328 12.991 3.21328 13.0062C3.21328 13.0214 3.22514 13.0338 3.23977 13.0338Z" fill="white"/>
<path d="M3.55217 13.0387C3.5668 13.0387 3.57866 13.0264 3.57866 13.0112C3.57866 12.9959 3.5668 12.9836 3.55217 12.9836C3.53755 12.9836 3.52569 12.9959 3.52569 13.0112C3.52569 13.0264 3.53755 13.0387 3.55217 13.0387Z" fill="white"/>
<path d="M3.96739 12.3815C3.98202 12.3815 3.99388 12.3691 3.99388 12.3539C3.99388 12.3386 3.98202 12.3263 3.96739 12.3263C3.95277 12.3263 3.94091 12.3386 3.94091 12.3539C3.94091 12.3691 3.95277 12.3815 3.96739 12.3815Z" fill="white"/>
<path d="M4.22839 12.3815C4.24302 12.3815 4.25488 12.3691 4.25488 12.3539C4.25488 12.3386 4.24302 12.3263 4.22839 12.3263C4.21376 12.3263 4.2019 12.3386 4.2019 12.3539C4.2019 12.3691 4.21376 12.3815 4.22839 12.3815Z" fill="white"/>
<path d="M4.48939 12.3815C4.50401 12.3815 4.51587 12.3691 4.51587 12.3539C4.51587 12.3386 4.50401 12.3263 4.48939 12.3263C4.47476 12.3263 4.4629 12.3386 4.4629 12.3539C4.4629 12.3691 4.47476 12.3815 4.48939 12.3815Z" fill="white"/>
<path d="M4.07417 12.2727C4.08879 12.2727 4.10065 12.2604 4.10065 12.2452C4.10065 12.2299 4.08879 12.2176 4.07417 12.2176C4.05954 12.2176 4.04768 12.2299 4.04768 12.2452C4.04768 12.2604 4.05954 12.2727 4.07417 12.2727Z" fill="white"/>
<path d="M4.38262 12.2727C4.39724 12.2727 4.4091 12.2604 4.4091 12.2452C4.4091 12.2299 4.39724 12.2176 4.38262 12.2176C4.36799 12.2176 4.35613 12.2299 4.35613 12.2452C4.35613 12.2604 4.36799 12.2727 4.38262 12.2727Z" fill="white"/>
<path d="M4.07021 12.4852C4.08484 12.4852 4.0967 12.4729 4.0967 12.4577C4.0967 12.4424 4.08484 12.4301 4.07021 12.4301C4.05558 12.4301 4.04372 12.4424 4.04372 12.4577C4.04372 12.4729 4.05558 12.4852 4.07021 12.4852Z" fill="white"/>
<path d="M4.38262 12.4902C4.39724 12.4902 4.4091 12.4778 4.4091 12.4626C4.4091 12.4474 4.39724 12.435 4.38262 12.435C4.36799 12.435 4.35613 12.4474 4.35613 12.4626C4.35613 12.4778 4.36799 12.4902 4.38262 12.4902Z" fill="white"/>
<path d="M3.13695 11.8428C3.15158 11.8428 3.16344 11.8304 3.16344 11.8152C3.16344 11.8 3.15158 11.7876 3.13695 11.7876C3.12233 11.7876 3.11047 11.8 3.11047 11.8152C3.11047 11.8304 3.12233 11.8428 3.13695 11.8428Z" fill="white"/>
<path d="M3.39795 11.8428C3.41258 11.8428 3.42443 11.8304 3.42443 11.8152C3.42443 11.8 3.41258 11.7876 3.39795 11.7876C3.38332 11.7876 3.37146 11.8 3.37146 11.8152C3.37146 11.8304 3.38332 11.8428 3.39795 11.8428Z" fill="white"/>
<path d="M3.65894 11.8378C3.67357 11.8378 3.68543 11.8255 3.68543 11.8103C3.68543 11.795 3.67357 11.7827 3.65894 11.7827C3.64432 11.7827 3.63246 11.795 3.63246 11.8103C3.63246 11.8255 3.64432 11.8378 3.65894 11.8378Z" fill="white"/>
<path d="M3.23977 11.7341C3.2544 11.7341 3.26626 11.7217 3.26626 11.7065C3.26626 11.6912 3.2544 11.6789 3.23977 11.6789C3.22514 11.6789 3.21328 11.6912 3.21328 11.7065C3.21328 11.7217 3.22514 11.7341 3.23977 11.7341Z" fill="white"/>
<path d="M3.55217 11.7341C3.5668 11.7341 3.57866 11.7217 3.57866 11.7065C3.57866 11.6912 3.5668 11.6789 3.55217 11.6789C3.53755 11.6789 3.52569 11.6912 3.52569 11.7065C3.52569 11.7217 3.53755 11.7341 3.55217 11.7341Z" fill="white"/>
<path d="M3.23977 11.9466C3.2544 11.9466 3.26626 11.9342 3.26626 11.919C3.26626 11.9038 3.2544 11.8914 3.23977 11.8914C3.22514 11.8914 3.21328 11.9038 3.21328 11.919C3.21328 11.9342 3.22514 11.9466 3.23977 11.9466Z" fill="white"/>
<path d="M3.55217 11.9515C3.5668 11.9515 3.57866 11.9392 3.57866 11.9239C3.57866 11.9087 3.5668 11.8963 3.55217 11.8963C3.53755 11.8963 3.52569 11.9087 3.52569 11.9239C3.52569 11.9392 3.53755 11.9515 3.55217 11.9515Z" fill="white"/>
<path d="M2.30256 12.3913C2.31718 12.3913 2.32904 12.379 2.32904 12.3638C2.32904 12.3485 2.31718 12.3362 2.30256 12.3362C2.28793 12.3362 2.27607 12.3485 2.27607 12.3638C2.27607 12.379 2.28793 12.3913 2.30256 12.3913Z" fill="white"/>
<path d="M2.56355 12.3913C2.57818 12.3913 2.59004 12.379 2.59004 12.3638C2.59004 12.3485 2.57818 12.3362 2.56355 12.3362C2.54892 12.3362 2.53707 12.3485 2.53707 12.3638C2.53707 12.379 2.54892 12.3913 2.56355 12.3913Z" fill="white"/>
<path d="M2.82455 12.3864C2.83918 12.3864 2.85103 12.374 2.85103 12.3588C2.85103 12.3436 2.83918 12.3312 2.82455 12.3312C2.80992 12.3312 2.79806 12.3436 2.79806 12.3588C2.79806 12.374 2.80992 12.3864 2.82455 12.3864Z" fill="white"/>
<path d="M2.40933 12.2826C2.42396 12.2826 2.43581 12.2703 2.43581 12.255C2.43581 12.2398 2.42396 12.2275 2.40933 12.2275C2.3947 12.2275 2.38284 12.2398 2.38284 12.255C2.38284 12.2703 2.3947 12.2826 2.40933 12.2826Z" fill="white"/>
<path d="M2.71778 12.2826C2.73241 12.2826 2.74426 12.2703 2.74426 12.255C2.74426 12.2398 2.73241 12.2275 2.71778 12.2275C2.70315 12.2275 2.69129 12.2398 2.69129 12.255C2.69129 12.2703 2.70315 12.2826 2.71778 12.2826Z" fill="white"/>
<path d="M2.40537 12.4951C2.42 12.4951 2.43186 12.4828 2.43186 12.4675C2.43186 12.4523 2.42 12.44 2.40537 12.44C2.39075 12.44 2.37889 12.4523 2.37889 12.4675C2.37889 12.4828 2.39075 12.4951 2.40537 12.4951Z" fill="white"/>
<path d="M2.71778 12.5001C2.73241 12.5001 2.74426 12.4877 2.74426 12.4725C2.74426 12.4573 2.73241 12.4449 2.71778 12.4449C2.70315 12.4449 2.69129 12.4573 2.69129 12.4725C2.69129 12.4877 2.70315 12.5001 2.71778 12.5001Z" fill="white"/>
<path fill-rule="evenodd" clip-rule="evenodd" d="M3.8061 9.99219L3.98408 9.90625L4.16602 9.99219H3.8061ZM3.26821 9.99219L3.44619 9.90625L3.62812 9.99219H3.26821ZM2.73032 9.99219L2.9083 9.90625L3.09023 9.99219H2.73032ZM3.8061 8.07812L3.98408 8.16406L4.16602 8.08203H3.8061V8.07812ZM3.26821 8.07812L3.44619 8.16406L3.62812 8.08203H3.26821V8.07812ZM2.73032 8.07812L2.9083 8.16406L3.09023 8.08203H2.73032V8.07812Z" fill="white"/>
<path fill-rule="evenodd" clip-rule="evenodd" d="M3.65581 10.2383L3.44619 10.4062L3.23657 10.2383L3.02695 10.4062L2.81733 10.2383V10.3242L2.95972 10.4023L2.88853 10.4883V10.5703H2.95972L3.02695 10.4922L3.09814 10.5703H3.16934V10.4922L3.09814 10.4062L3.23657 10.3242L3.37896 10.4023L3.30776 10.4883V10.5703H3.37896L3.44619 10.4922L3.51738 10.5703H3.58462V10.4922L3.51738 10.4062L3.65581 10.3242L3.79424 10.4023L3.727 10.4883V10.5703H3.79424L3.86543 10.4922L3.93662 10.5703H4.00386V10.4922L3.93662 10.4062L4.07505 10.3242V10.2344L3.86543 10.4023L3.65581 10.2344V10.2383ZM3.65581 7.83203L3.44619 7.66406L3.23657 7.83203L3.02695 7.66406L2.81733 7.83203V7.75L2.95972 7.66406L2.88853 7.58594V7.5H2.95972L3.02695 7.58203L3.09814 7.5H3.16934V7.58203L3.09814 7.66797L3.23657 7.74609L3.37896 7.66797L3.30776 7.58203V7.5H3.37896L3.44619 7.58203L3.51738 7.5H3.58462V7.58203L3.51738 7.66797L3.65581 7.74609L3.79424 7.66797L3.727 7.58203V7.5H3.79424L3.86543 7.58203L3.93662 7.5H4.00386V7.58203L3.93662 7.66797L4.07505 7.74609V7.83203L3.86543 7.66406L3.65581 7.83203ZM5.23784 9.21484L5.46724 9.03516L5.2418 8.85547L5.46724 8.67578L5.2418 8.49609H5.35254L5.46724 8.61328L5.57798 8.55469H5.68872V8.61719L5.57798 8.67578L5.68872 8.73438V8.79687H5.57798L5.46724 8.73438L5.35254 8.85547L5.46724 8.97266L5.57798 8.91797H5.68872V8.97656L5.57798 9.03516L5.68872 9.09375V9.15625H5.57798L5.46724 9.09375L5.35254 9.21484L5.46724 9.33203L5.57798 9.27344H5.68872V9.33594L5.57798 9.39453L5.68872 9.45703V9.51563H5.57798L5.46724 9.45703L5.35254 9.57422H5.2418L5.46724 9.39453L5.2418 9.21484H5.23784ZM1.65454 9.21484L1.4291 9.03516L1.65454 8.85547L1.4291 8.67578L1.65454 8.49609H1.53984L1.4291 8.61328L1.31836 8.55469H1.19971V8.61719L1.31836 8.67187L1.20366 8.73047V8.79297H1.31836L1.4291 8.73047L1.53984 8.85156L1.4291 8.96875L1.31836 8.91406H1.19971V8.97266L1.3144 9.03125L1.19971 9.08984V9.15234H1.31836L1.4291 9.08984L1.53984 9.21094L1.4291 9.33203L1.31836 9.27344H1.19971V9.33203L1.3144 9.39062L1.19971 9.45312V9.51172H1.31836L1.4291 9.45312L1.53984 9.57031H1.65454L1.4291 9.39062L1.65454 9.21094V9.21484Z" fill="#00843D"/>
<path fill-rule="evenodd" clip-rule="evenodd" d="M3.17329 9.03516H2.9083V8.87109H3.08628V8.71875H3.2603V8.57812H3.43828V8.75391C3.29194 8.75391 3.17329 8.87109 3.17329 9.03516Z" fill="white"/>
<path fill-rule="evenodd" clip-rule="evenodd" d="M3.70327 9.03516H3.96826V8.87109H3.79028V8.71875H3.6123V8.57812H3.43828V8.75391C3.58462 8.75391 3.70327 8.87109 3.70327 9.03516Z" fill="#FAAE29"/>
<path fill-rule="evenodd" clip-rule="evenodd" d="M3.70327 9.03516H3.96826V9.19922H3.79028V9.35156H3.6123V9.49219H3.43828V9.31641C3.58462 9.31641 3.70327 9.19922 3.70327 9.03516Z" fill="white"/>
<path fill-rule="evenodd" clip-rule="evenodd" d="M3.17329 9.03516H2.9083V9.19922H3.08628V9.35156H3.2603V9.49219H3.43828V9.31641C3.29194 9.31641 3.17329 9.19922 3.17329 9.03516Z" fill="#FAAE29"/>
<path fill-rule="evenodd" clip-rule="evenodd" d="M3.70327 9.03516H3.43828V8.75391C3.58462 8.75391 3.70327 8.88281 3.70327 9.03516Z" fill="#00843D"/>
<path fill-rule="evenodd" clip-rule="evenodd" d="M3.70327 9.03516H3.43828V9.31641C3.58462 9.31641 3.70327 9.19141 3.70327 9.03516Z" fill="#CA3745"/>
<path fill-rule="evenodd" clip-rule="evenodd" d="M3.17329 9.03516H3.43828V9.31641C3.29194 9.31641 3.17329 9.19141 3.17329 9.03516Z" fill="#00843D"/>
<path fill-rule="evenodd" clip-rule="evenodd" d="M3.17329 9.03516H3.43828V8.75391C3.29194 8.75391 3.17329 8.88281 3.17329 9.03516Z" fill="#CA3745"/>
<path fill-rule="evenodd" clip-rule="evenodd" d="M3.71514 10.0742L3.44619 9.90625L3.17725 10.0742L2.9083 9.90625L2.63936 10.0742V9.99219L2.81733 9.90625L2.73032 9.82422V9.74219H2.81733L2.9083 9.82422L2.99927 9.74219H3.09023V9.82422L2.99927 9.90625L3.17725 9.99219L3.35918 9.90625L3.26821 9.82422V9.74219H3.35918L3.44619 9.82422L3.53716 9.74219H3.62812V9.82422L3.53716 9.90625L3.71514 9.99219L3.89707 9.90625L3.8061 9.82422V9.74219H3.89707L3.98408 9.82422L4.07505 9.74219H4.16602V9.82422L4.07505 9.90625L4.25303 9.99219V10.0703L3.98408 9.90625L3.71514 10.0742ZM3.71514 8L3.44619 8.16406L3.17725 8L2.9083 8.16406L2.63936 8V8.07813L2.81733 8.16406L2.73032 8.24609V8.33203H2.81733L2.9083 8.24609L2.99927 8.33203H3.09023V8.24219L2.99927 8.16406L3.17725 8.07813L3.35918 8.16016L3.26821 8.24219V8.32812H3.35918L3.44619 8.24219L3.53716 8.32812H3.62812V8.24219L3.53716 8.16406L3.71514 8.07813L3.89707 8.16016L3.8061 8.24219V8.32812H3.89707L3.98408 8.24219L4.07505 8.32812H4.16602V8.24219L4.07505 8.16406L4.25303 8.07813V7.99609L3.98408 8.16016L3.71514 7.99609V8ZM4.70391 9.24219L4.56943 9.03516L4.70391 8.82813L4.56943 8.62109L4.70391 8.41406H4.63667L4.56943 8.55078L4.5022 8.48047H4.43496V8.55078L4.5022 8.62109L4.43496 8.69141V8.75781H4.5022L4.56943 8.69141L4.63667 8.82813L4.56943 8.96484L4.5022 8.89844H4.43496V8.96484L4.5022 9.03516L4.43496 9.10547V9.17578H4.5022L4.56943 9.10547L4.63667 9.24219L4.56943 9.38281L4.5022 9.3125H4.43496V9.38281L4.5022 9.44922L4.43496 9.51953V9.58984H4.5022L4.56943 9.51953L4.63667 9.66016H4.70391L4.56943 9.44922L4.70391 9.24219Z" fill="#00843D"/>
<path fill-rule="evenodd" clip-rule="evenodd" d="M2.18848 9.24219L2.3269 9.03516L2.18848 8.82813L2.32295 8.62109L2.18848 8.41406H2.25571L2.32295 8.55078L2.39019 8.48047H2.45742V8.55078L2.39019 8.62109L2.45742 8.69141V8.75781H2.39019L2.32295 8.69141L2.25571 8.82813L2.32295 8.96484L2.39019 8.89844H2.45742V8.96484L2.39019 9.03516L2.45742 9.10547V9.17578H2.39019L2.32295 9.10547L2.25571 9.24219L2.32295 9.38281L2.39019 9.3125H2.45742V9.38281L2.39019 9.44922L2.45742 9.51953V9.58984H2.39019L2.32295 9.51953L2.25571 9.66016H2.18848L2.32295 9.44922L2.18848 9.24219Z" fill="#00843D"/>
<path fill-rule="evenodd" clip-rule="evenodd" d="M5.32712 9.82706H5.41823V9.90672H5.32712V9.82706ZM5.236 9.90672H5.32712V9.99106H5.24107L5.236 9.90672ZM4.79057 10.3237H4.88168V10.4081H4.79057V10.3237ZM4.88168 10.2394H4.96773V10.3237H4.88168V10.2394ZM1.92058 10.2394H2.0117V10.3237H1.91552L1.92058 10.2394ZM1.47009 9.82706H1.5612V9.90672H1.47009V9.82706ZM1.5612 9.90672H1.65231V9.99106H1.5612V9.90672ZM1.5612 8.07935H1.65231V8.16369H1.5612V8.07935ZM1.47009 8.16369H1.5612V8.24803H1.47009V8.16369ZM2.0117 7.66703H2.09774V7.75137H2.01676L2.0117 7.66703ZM1.92058 7.75137H2.0117V7.83571H1.91552L1.92058 7.75137ZM4.79057 7.66703H4.88168V7.75137H4.79057V7.66703ZM4.88168 7.75137H4.96773V7.83571H4.88168V7.75137ZM5.236 8.07935H5.32712V8.16369H5.24107L5.236 8.07935ZM5.32712 8.16838H5.41823V8.24803H5.32712V8.16838ZM2.01676 10.3237H2.10281V10.4081H2.01676V10.3237Z" fill="#00843D"/>
<path fill-rule="evenodd" clip-rule="evenodd" d="M2.64094 8.08404L2.28662 8.41203V9.65838L2.64094 9.99106H4.26069L4.61501 9.66307V8.41671L4.25562 8.08404H2.64094ZM2.54983 7.83102L1.65391 8.66505V9.41474L2.55489 10.2394H4.34673L5.24266 9.41005V8.66036L4.34673 7.83102H2.54983Z" fill="#00843D"/>
<path d="M5.32712 9.90672H5.41823V9.82706H5.32712V9.90672ZM5.32712 9.90672H5.236L5.24107 9.99106H5.32712V9.90672ZM4.88168 10.3237H4.79057V10.4081H4.88168V10.3237ZM4.88168 10.3237H4.96773V10.2394H4.88168V10.3237ZM1.5612 9.90672V9.82706H1.47009V9.90672H1.5612ZM1.5612 9.90672H1.65231V9.99106H1.5612V9.90672ZM1.5612 8.16369H1.65231V8.07935H1.5612V8.16369ZM1.5612 8.16369H1.47009V8.24803H1.5612V8.16369ZM4.88168 7.75137V7.66703H4.79057V7.75137H4.88168ZM4.88168 7.75137H4.96773V7.83571H4.88168V7.75137ZM1.92058 10.2394H2.0117V10.3237H1.91552L1.92058 10.2394ZM2.0117 7.66703H2.09774V7.75137H2.01676L2.0117 7.66703ZM1.92058 7.75137H2.0117V7.83571H1.91552L1.92058 7.75137ZM5.236 8.07935H5.32712V8.16369H5.24107L5.236 8.07935ZM5.32712 8.16838H5.41823V8.24803H5.32712V8.16838ZM2.01676 10.3237H2.10281V10.4081H2.01676V10.3237ZM2.64094 8.08404L2.28662 8.41203V9.65838L2.64094 9.99106H4.26069L4.61501 9.66307V8.41671L4.25562 8.08404H2.64094ZM2.54983 7.83102L1.65391 8.66505V9.41474L2.55489 10.2394H4.34673L5.24266 9.41005V8.66036L4.34673 7.83102H2.54983Z" stroke="black" stroke-width="0.01"/>
<path fill-rule="evenodd" clip-rule="evenodd" d="M3.01356 7.99805L3.15529 7.82937L3.30107 7.99805H3.00951H3.01356Z" fill="#FAAE29"/>
<path fill-rule="evenodd" clip-rule="evenodd" d="M3.591 7.99805L3.73273 7.82937L3.87851 7.99805H3.58695H3.591Z" fill="#FAAE29"/>
<path fill-rule="evenodd" clip-rule="evenodd" d="M2.7288 7.99805L2.87052 7.82937L3.0163 7.99805H2.72475H2.7288Z" fill="#CA3745"/>
<path fill-rule="evenodd" clip-rule="evenodd" d="M3.30228 7.99805L3.44401 7.82937L3.58979 7.99805H3.29823H3.30228Z" fill="#CA3745"/>
<path fill-rule="evenodd" clip-rule="evenodd" d="M3.87577 7.99805L4.0175 7.82937L4.16327 7.99805H3.87172H3.87577Z" fill="#CA3745"/>
<path fill-rule="evenodd" clip-rule="evenodd" d="M3.01356 7.99805L3.15529 7.82937L3.30107 7.99805H3.00951H3.01356Z" stroke="black" stroke-width="0.01"/>
<path fill-rule="evenodd" clip-rule="evenodd" d="M3.591 7.99805L3.73273 7.82937L3.87851 7.99805H3.58695H3.591Z" stroke="black" stroke-width="0.01"/>
<path fill-rule="evenodd" clip-rule="evenodd" d="M2.7288 7.99805L2.87052 7.82937L3.0163 7.99805H2.72475H2.7288Z" stroke="black" stroke-width="0.01"/>
<path fill-rule="evenodd" clip-rule="evenodd" d="M3.30228 7.99805L3.44401 7.82937L3.58979 7.99805H3.29823H3.30228Z" stroke="black" stroke-width="0.01"/>
<path fill-rule="evenodd" clip-rule="evenodd" d="M3.87577 7.99805L4.0175 7.82937L4.16327 7.99805H3.87172H3.87577Z" stroke="black" stroke-width="0.01"/>
<path fill-rule="evenodd" clip-rule="evenodd" d="M3.01356 10.0723L3.15529 10.2409L3.30107 10.0723H3.00951H3.01356Z" fill="#FAAE29"/>
<path fill-rule="evenodd" clip-rule="evenodd" d="M3.591 10.0723L3.73273 10.2409L3.87851 10.0723H3.58695H3.591Z" fill="#FAAE29"/>
<path fill-rule="evenodd" clip-rule="evenodd" d="M2.7288 10.0723L2.87052 10.2409L3.0163 10.0723H2.72475H2.7288Z" fill="#CA3745"/>
<path fill-rule="evenodd" clip-rule="evenodd" d="M3.30228 10.0723L3.44401 10.2409L3.58979 10.0723H3.29823H3.30228Z" fill="#CA3745"/>
<path fill-rule="evenodd" clip-rule="evenodd" d="M3.87577 10.0723L4.0175 10.2409L4.16327 10.0723H3.87172H3.87577Z" fill="#CA3745"/>
<path fill-rule="evenodd" clip-rule="evenodd" d="M3.01356 10.0723L3.15529 10.2409L3.30107 10.0723H3.00951H3.01356Z" stroke="black" stroke-width="0.01"/>
<path fill-rule="evenodd" clip-rule="evenodd" d="M3.591 10.0723L3.73273 10.2409L3.87851 10.0723H3.58695H3.591Z" stroke="black" stroke-width="0.01"/>
<path fill-rule="evenodd" clip-rule="evenodd" d="M2.7288 10.0723L2.87052 10.2409L3.0163 10.0723H2.72475H2.7288Z" stroke="black" stroke-width="0.01"/>
<path fill-rule="evenodd" clip-rule="evenodd" d="M3.30228 10.0723L3.44401 10.2409L3.58979 10.0723H3.29823H3.30228Z" stroke="black" stroke-width="0.01"/>
<path fill-rule="evenodd" clip-rule="evenodd" d="M3.87577 10.0723L4.0175 10.2409L4.16327 10.0723H3.87172H3.87577Z" stroke="black" stroke-width="0.01"/>
<path fill-rule="evenodd" clip-rule="evenodd" d="M2.37214 8.24803L2.18992 8.41671V9.65838L2.37214 9.82706H2.10387V8.24803H2.37214Z" fill="#CA3745"/>
<path fill-rule="evenodd" clip-rule="evenodd" d="M4.52023 8.24803L4.70245 8.41671V9.65838L4.52023 9.82706H4.7885V8.24803H4.52023Z" fill="#CA3745"/>
<path fill-rule="evenodd" clip-rule="evenodd" d="M2.37443 9.82432L2.64016 10.0703H2.37443V9.82432Z" fill="#CA3745"/>
<path fill-rule="evenodd" clip-rule="evenodd" d="M4.5219 9.82432L4.25617 10.0703H4.5219V9.82432Z" fill="#CA3745"/>
<path fill-rule="evenodd" clip-rule="evenodd" d="M4.5219 8.24599L4.25617 8.00002H4.5219V8.24599Z" fill="#CA3745"/>
<path fill-rule="evenodd" clip-rule="evenodd" d="M2.37443 8.24599L2.64016 8.00002H2.37443V8.24599Z" fill="#CA3745"/>
<path fill-rule="evenodd" clip-rule="evenodd" d="M2.64094 8.08404L2.28662 8.41203V9.65838L2.64094 9.99106H4.26069L4.61501 9.66307V8.41671L4.25562 8.08404H2.64094ZM2.64094 7.9997L2.19551 8.41203V9.65838L2.64094 10.0754H4.26069L4.70612 9.65838V8.41203L4.25562 7.9997H2.64094Z" fill="#00843D"/>
<path fill-rule="evenodd" clip-rule="evenodd" d="M4.79009 8.81107H5.14947L5.24058 8.88697L5.14947 8.96288H4.79515V8.80685L4.79009 8.81107Z" fill="#CA3745"/>
<path fill-rule="evenodd" clip-rule="evenodd" d="M4.79009 8.95992H5.14947L5.24058 9.03584L5.14947 9.11175H4.79515V8.95571L4.79009 8.95992Z" fill="#FAAE29"/>
<path fill-rule="evenodd" clip-rule="evenodd" d="M4.79009 9.10794H5.14947L5.24058 9.18385L5.14947 9.25976H4.79515V9.10372L4.79009 9.10794Z" fill="#CA3745"/>
<path fill-rule="evenodd" clip-rule="evenodd" d="M4.79009 9.2568H5.14947L5.24058 9.33271L5.14947 9.40862H4.79515V9.25258L4.79009 9.2568Z" fill="#FAAE29"/>
<path fill-rule="evenodd" clip-rule="evenodd" d="M4.79009 8.65914H5.14947L5.24058 8.73506L5.14947 8.81107L4.79515 8.81097V8.65493L4.79009 8.65914Z" fill="#FAAE29"/>
<path fill-rule="evenodd" clip-rule="evenodd" d="M2.10228 8.81107H1.7429L1.65179 8.88697L1.7429 8.96288H2.09722V8.80685L2.10228 8.81107Z" fill="#CA3745"/>
<path fill-rule="evenodd" clip-rule="evenodd" d="M2.10228 8.95992H1.7429L1.65179 9.03584L1.7429 9.11175H2.09722V8.95571L2.10228 8.95992Z" fill="#FAAE29"/>
<path fill-rule="evenodd" clip-rule="evenodd" d="M2.10228 9.10794H1.7429L1.65179 9.18385L1.7429 9.25976H2.09722V9.10372L2.10228 9.10794Z" fill="#CA3745"/>
<path fill-rule="evenodd" clip-rule="evenodd" d="M2.10228 9.2568H1.7429L1.65179 9.33271L1.7429 9.40862H2.09722V9.25258L2.10228 9.2568Z" fill="#FAAE29"/>
<path fill-rule="evenodd" clip-rule="evenodd" d="M2.10228 8.65914H1.7429L1.65179 8.73506L1.7429 8.81107L2.09722 8.81097V8.65493L2.10228 8.65914Z" fill="#FAAE29"/>
<path fill-rule="evenodd" clip-rule="evenodd" d="M1.5612 8.16838V9.90203H2.0117V10.319H4.88168V9.90203H5.32711V8.16838H4.88168V7.75605H2.0117V8.16838H1.5612ZM1.65231 8.24803V9.82706H2.09774V10.2394H4.79057V9.82706H5.24107V8.24803H4.79057V7.84039H2.09774V8.25272H1.65231V8.24803Z" fill="#970000"/>
<path d="M5.14947 8.81107H4.79009L4.79515 8.80685V8.96288H5.14947L5.24058 8.88697L5.14947 8.81107ZM5.14947 8.81107L5.24058 8.73506L5.14947 8.65914H4.79009L4.79515 8.65493V8.81097L5.14947 8.81107ZM1.7429 8.81107H2.10228L2.09722 8.80685V8.96288H1.7429L1.65179 8.88697L1.7429 8.81107ZM1.7429 8.81107L1.65179 8.73506L1.7429 8.65914H2.10228L2.09722 8.65493V8.81097L1.7429 8.81107ZM2.37214 8.24803L2.18992 8.41671V9.65838L2.37214 9.82706H2.10387V8.24803H2.37214ZM4.52023 8.24803L4.70245 8.41671V9.65838L4.52023 9.82706H4.7885V8.24803H4.52023ZM2.37443 9.82432L2.64016 10.0703H2.37443V9.82432ZM4.5219 9.82432L4.25617 10.0703H4.5219V9.82432ZM4.5219 8.24599L4.25617 8.00002H4.5219V8.24599ZM2.37443 8.24599L2.64016 8.00002H2.37443V8.24599ZM2.64094 8.08404L2.28662 8.41203V9.65838L2.64094 9.99106H4.26069L4.61501 9.66307V8.41671L4.25562 8.08404H2.64094ZM2.64094 7.9997L2.19551 8.41203V9.65838L2.64094 10.0754H4.26069L4.70612 9.65838V8.41203L4.25562 7.9997H2.64094ZM4.79009 8.95992H5.14947L5.24058 9.03584L5.14947 9.11175H4.79515V8.95571L4.79009 8.95992ZM4.79009 9.10794H5.14947L5.24058 9.18385L5.14947 9.25976H4.79515V9.10372L4.79009 9.10794ZM4.79009 9.2568H5.14947L5.24058 9.33271L5.14947 9.40862H4.79515V9.25258L4.79009 9.2568ZM2.10228 8.95992H1.7429L1.65179 9.03584L1.7429 9.11175H2.09722V8.95571L2.10228 8.95992ZM2.10228 9.10794H1.7429L1.65179 9.18385L1.7429 9.25976H2.09722V9.10372L2.10228 9.10794ZM2.10228 9.2568H1.7429L1.65179 9.33271L1.7429 9.40862H2.09722V9.25258L2.10228 9.2568ZM1.5612 8.16838V9.90203H2.0117V10.319H4.88168V9.90203H5.32711V8.16838H4.88168V7.75605H2.0117V8.16838H1.5612ZM1.65231 8.24803V9.82706H2.09774V10.2394H4.79057V9.82706H5.24107V8.24803H4.79057V7.84039H2.09774V8.25272H1.65231V8.24803Z" stroke="black" stroke-width="0.01"/>
<path fill-rule="evenodd" clip-rule="evenodd" d="M5.68689 1.67996L5.41862 1.36004V1.12123L5.15035 0.882419H4.61381L4.16331 0.643608H2.73085L2.28036 0.882419H1.74382L1.47555 1.12123V1.36004L1.20728 1.67545V2.31979L1.47555 2.6352V2.87851L1.74382 3.11732H2.28036L2.73085 3.35614H4.16331L4.61381 3.11732H5.15035L5.42368 2.87851V2.6397L5.69195 2.31979V1.67545L5.68689 1.67996Z" fill="#CA3745"/>
<path fill-rule="evenodd" clip-rule="evenodd" d="M1.29463 2V2.23828L1.56357 2.55859V2.79688L1.83252 3.03906H2.37041L2.82129 3.27344H3.44619V2.00391H1.29463V2Z" fill="#FAAE29"/>
<path fill-rule="evenodd" clip-rule="evenodd" d="M2.69077 2.55859L2.3625 2.76563H2.16475L2.23198 2.83203L2.10146 2.96875L2.1687 3.03906L2.36645 2.96875L2.42974 3.03906L2.45742 2.85547L2.82129 2.63672L2.69077 2.55859Z" fill="#CA3745"/>
<path fill-rule="evenodd" clip-rule="evenodd" d="M2.33086 2.39844L2.00259 2.60547H1.80879L1.87207 2.67188L1.74551 2.80859L1.80879 2.87891L2.00654 2.80859L2.06982 2.87891L2.10146 2.69531L2.46138 2.48047L2.33086 2.40234V2.39844ZM2.15288 2.07813L1.82461 2.28516H1.62686L1.69409 2.35547L1.56357 2.49219L1.63081 2.55859L1.82856 2.48828L1.89185 2.55859L1.91953 2.375L2.2834 2.16016L2.15288 2.08203V2.07813Z" fill="#CA3745"/>
<path fill-rule="evenodd" clip-rule="evenodd" d="M5.59775 2V1.76172L5.32881 1.44141V1.20313L5.05986 0.960938H4.52197L4.07505 0.722657H3.44619V2H5.59775Z" fill="#FAAE29"/>
<path fill-rule="evenodd" clip-rule="evenodd" d="M3.44619 3.27734H3.28008L3.09023 3.11719H2.78174L2.61562 3.03906L2.69868 2.96094L2.86479 3.03906H3.03091L3.19702 2.79688L3.44619 2.875V3.03906H3.19702L3.44619 3.27344V3.27734Z" fill="#CA3745"/>
<path fill-rule="evenodd" clip-rule="evenodd" d="M1.29463 2V1.76172L1.56357 1.44141V1.20313L1.83252 0.960938H2.37041L2.82129 0.722657H3.44619V2L1.29463 2Z" fill="white"/>
<path fill-rule="evenodd" clip-rule="evenodd" d="M3.44619 0.722657H3.28008L3.09023 0.878907H2.78174L2.61562 0.960938L2.69868 1.03906L2.86479 0.960938H3.03091L3.19702 1.20313L3.44619 1.125V0.960938H3.19702L3.44619 0.722657Z" fill="#CA3745"/>
<path fill-rule="evenodd" clip-rule="evenodd" d="M3.44619 0.722657H3.6123L3.8061 0.878907H4.11064L4.27676 0.960938L4.19766 1.03906L4.02759 0.960938H3.86147L3.69536 1.20313L3.44619 1.125V0.960938H3.69536L3.44619 0.722657Z" fill="#CA3745"/>
<path fill-rule="evenodd" clip-rule="evenodd" d="M5.59775 2V2.23828L5.32881 2.55859V2.79688L5.05986 3.03906H4.52197L4.07505 3.27344H3.44619V2.00391H5.59775V2Z" fill="white"/>
<path fill-rule="evenodd" clip-rule="evenodd" d="M3.44619 3.27734H3.6123L3.8061 3.11719H4.11064L4.27676 3.03906L4.19766 2.96094L4.02759 3.03906H3.86147L3.69536 2.79688L3.44619 2.875V3.03906H3.69536L3.44619 3.27344V3.27734ZM2.33086 1.59766L2.00259 1.39453H1.80879L1.87207 1.32813L1.74551 1.19141L1.80879 1.12109L2.00654 1.19141L2.06982 1.12109L2.10146 1.30469L2.46138 1.51953L2.33086 1.59766ZM4.20557 1.44141L4.52988 1.23438H4.72764L4.6604 1.16797L4.79092 1.03125L4.72764 0.960938L4.52988 1.03125L4.4666 0.960938L4.43496 1.14453L4.07505 1.36328L4.20557 1.44141Z" fill="#CA3745"/>
<path fill-rule="evenodd" clip-rule="evenodd" d="M2.69077 1.44141L2.3625 1.23438H2.16475L2.23198 1.16797L2.10146 1.03125L2.1687 0.960938L2.36645 1.03125L2.42974 0.960938L2.45742 1.14453L2.82129 1.35938L2.69077 1.4375V1.44141ZM2.14893 1.92188L1.82065 1.71484H1.6229L1.69014 1.64453L1.55962 1.50781L1.63477 1.44531L1.83252 1.51563L1.8958 1.44531L1.92349 1.62891L2.28735 1.84375L2.15684 1.92188H2.14893Z" fill="#CA3745"/>
<path fill-rule="evenodd" clip-rule="evenodd" d="M1.45679 2H1.53589L1.61894 2.07813L1.702 2L3.44619 2L3.44619 3.11719H3.36709L3.44619 3.19531V3.28125L3.19702 3.04297V2.96484H3.28008V3.04297H3.36313V2.96484L2.69077 2.61328H2.12124V2.26172L1.87207 2.08594H1.70596L1.6229 2.16406L1.702 2.24219H1.6229L1.45679 2.00781V2Z" fill="white"/>
<path fill-rule="evenodd" clip-rule="evenodd" d="M1.45679 2H1.53589L1.61894 1.92188L1.702 2L3.44619 2L3.44619 0.882813H3.36709L3.44619 0.804688L3.44619 0.722657L3.19702 0.960938L3.19702 1.03906H3.28008V0.960938H3.36313V1.03906L2.69077 1.39453H2.12124V1.74219L1.87207 1.92188H1.70596L1.6229 1.84375L1.702 1.76172H1.6229L1.45679 2Z" fill="#FAAE29"/>
<path fill-rule="evenodd" clip-rule="evenodd" d="M1.83252 2L3.44619 2L3.44619 2.95703L2.73032 2.55859H2.19243V2.23828L1.83647 2H1.83252Z" fill="#00843D"/>
<path fill-rule="evenodd" clip-rule="evenodd" d="M4.56152 1.60156L4.88979 1.39453H5.08755L5.02031 1.32813L5.15083 1.19141L5.08755 1.12109L4.88979 1.19141L4.82651 1.12109L4.79487 1.30469L4.43496 1.51953L4.56152 1.59766V1.60156ZM4.74346 1.92188L5.07173 1.71484H5.26553L5.19829 1.64453L5.32881 1.50781L5.26553 1.44141L5.06777 1.51172L5.00449 1.44141L4.97285 1.625L4.61294 1.83984L4.74346 1.91797V1.92188Z" fill="#CA3745"/>
<path fill-rule="evenodd" clip-rule="evenodd" d="M5.43955 2H5.35649L5.27344 1.92188L5.19038 2H3.44619L3.44619 0.882813H3.52925L3.44619 0.804688L3.44619 0.722657L3.69536 0.960938V1.03906H3.6123V0.960938H3.52925V1.03906L4.20161 1.39453H4.77114V1.74219L5.02427 1.92188H5.19038L5.26948 1.84375L5.19038 1.76172H5.26948L5.43955 2Z" fill="white"/>
<path fill-rule="evenodd" clip-rule="evenodd" d="M3.44619 2V1.04297L4.16601 1.44141H4.70391V1.76172L5.06382 2L3.44619 2Z" fill="#00843D"/>
<path fill-rule="evenodd" clip-rule="evenodd" d="M4.20557 2.55859L4.52988 2.76563H4.72764L4.6604 2.83203L4.79092 2.96875L4.72764 3.03906L4.52988 2.96875L4.4666 3.03906L4.43496 2.85547L4.07505 2.63672L4.20557 2.55859Z" fill="#CA3745"/>
<path fill-rule="evenodd" clip-rule="evenodd" d="M4.56152 2.39844L4.88979 2.60547H5.08755L5.02031 2.67188L5.15083 2.80859L5.08755 2.87891L4.88979 2.80859L4.82651 2.87891L4.79487 2.69531L4.43496 2.48047L4.56152 2.40234V2.39844ZM4.74346 2.07813L5.07173 2.28516H5.26553L5.19829 2.35156L5.32881 2.48828L5.26553 2.55859L5.06777 2.48828L5.00449 2.55859L4.97285 2.375L4.61294 2.16016L4.74346 2.08203V2.07813Z" fill="#CA3745"/>
<path fill-rule="evenodd" clip-rule="evenodd" d="M5.43955 2H5.35649L5.27344 2.07813L5.19038 2H3.44619L3.44619 3.11719H3.52925L3.44619 3.19531V3.28125L3.69536 3.04297V2.96484H3.6123V3.04297H3.52925V2.96484L4.20161 2.61328H4.77114V2.26172L5.02427 2.08594H5.19038L5.26948 2.16406L5.19038 2.24219H5.26948L5.43955 2.00781V2Z" fill="#FAAE29"/>
<path fill-rule="evenodd" clip-rule="evenodd" d="M3.44619 2L3.44619 2.95703L4.16601 2.55859H4.70391V2.23828L5.06382 2L3.44619 2ZM1.83252 2L3.44619 2V1.04297L2.73032 1.44141H2.19243V1.76172L1.83647 2H1.83252Z" fill="#CA3745"/>
<path fill-rule="evenodd" clip-rule="evenodd" d="M3.62417 2L4.07505 1.76172H4.34399L4.25303 1.68359L4.43496 1.51953L4.34399 1.44141L4.07505 1.51953L3.98408 1.44141L3.94453 1.65625L3.44619 1.90625L3.62417 2ZM3.26821 2L2.82129 2.23828H2.55234L2.63935 2.31641L2.46138 2.48047L2.55234 2.55859L2.82129 2.48047L2.9083 2.55859L2.94785 2.34375L3.44619 2.09375L3.26821 2Z" fill="#CA3745"/>
<path fill-rule="evenodd" clip-rule="evenodd" d="M3.26821 2L2.82129 1.76172H2.55234L2.64331 1.68359L2.46533 1.51953L2.5563 1.44141L2.82524 1.51953L2.91226 1.44141L2.95181 1.65625L3.45015 1.90625L3.27217 2H3.26821ZM3.62417 2L4.07505 2.23828H4.34399L4.25303 2.31641L4.43496 2.48047L4.34399 2.55859L4.07505 2.48047L3.98408 2.55859L3.94453 2.34375L3.44619 2.09375L3.62417 2Z" fill="#00843D"/>
<path fill-rule="evenodd" clip-rule="evenodd" d="M2.9083 2L3.44619 1.60156L3.98408 2L3.44619 2.39844L2.9083 2Z" fill="white"/>
<path fill-rule="evenodd" clip-rule="evenodd" d="M1.702 2.16016L1.78506 2.23828L1.70596 2.31641H1.61894L1.36977 2H1.45283L1.61894 2.23828H1.702L1.6229 2.16016L1.702 2.08203H1.87207V2.16016H1.702Z" fill="#CA3745"/>
<path fill-rule="evenodd" clip-rule="evenodd" d="M1.702 1.83984L1.78506 1.76172L1.70596 1.68359H1.61894L1.36977 2H1.45283L1.61894 1.76172L1.702 1.76172L1.6229 1.83984L1.702 1.91797H1.87207V1.83984H1.702ZM5.19038 2.16016L5.11128 2.23828L5.19038 2.31641H5.27344L5.52261 2H5.4435L5.27344 2.23828H5.19434L5.27344 2.16016L5.19434 2.08203H5.02427V2.16016H5.19038Z" fill="#CA3745"/>
<path fill-rule="evenodd" clip-rule="evenodd" d="M5.19434 1.83984L5.10732 1.76172L5.19038 1.68359H5.27344L5.52261 2H5.4435L5.27344 1.76172H5.19434L5.27344 1.83984L5.19434 1.91797H5.02427V1.83984H5.19434ZM3.36313 1.68359H3.52925V2.32031H3.36313V1.68359Z" fill="#CA3745"/>
<path fill-rule="evenodd" clip-rule="evenodd" d="M3.11396 1.83984H3.77842V2.16016H3.11396V1.83984Z" fill="#CA3745"/>
<path fill-rule="evenodd" clip-rule="evenodd" d="M2.68741 14.1324L1.19702 14.9439V16.2663L2.70148 17.0778H4.19187L5.68226 16.2663V14.9439L4.19187 14.1474H2.70148L2.68741 14.1324Z" fill="#00843D"/>
<path fill-rule="evenodd" clip-rule="evenodd" d="M1.76133 15.4805H1.84834V15.3125H2.03028V15.4766H2.12125V15.0937H2.03028V15.2578H1.8523V15.0937H1.76133V15.4805ZM4.05132 16.7539H4.14229V16.5898H4.32027V16.7539H4.41123V16.3672H4.32422V16.5312H4.14229V16.3672H4.05528V16.75L4.05132 16.7539ZM2.60376 14.8398H2.69473V14.6797H2.87667V14.8437H2.96368V14.4609H2.87667V14.625H2.69473V14.4609H2.60376V14.8437V14.8398ZM3.92872 14.8398H4.01968V14.6797H4.20162V14.8437H4.29258V14.4609H4.20162V14.625H4.01968V14.4609H3.92872V14.8437V14.8398ZM4.7751 15.4805H4.86211V15.3125H5.04405V15.4766H5.13501V15.0937H5.04405V15.2578H4.86211V15.0937H4.7751V15.4805ZM4.7751 16.1172H4.86211V15.9531H5.04405V16.1172H5.13501V15.7344H5.04405V15.8984H4.86211V15.7344H4.7751V16.1172Z" fill="#CC0000"/>
<path fill-rule="evenodd" clip-rule="evenodd" d="M3.4462 17.0078V15.6055H5.61753V16.2422L4.16602 17.0078H3.44224H3.4462ZM3.4462 14.207V15.6055H1.27881V14.9687L2.72242 14.207H3.4462Z" fill="#FAAE29"/>
<path fill-rule="evenodd" clip-rule="evenodd" d="M3.4462 14.207V15.6055H5.61753V14.9687L4.16602 14.207H3.44224H3.4462ZM3.4462 17.0078V15.6055H1.27881V16.2422L2.72242 17.0078H3.4462Z" fill="white"/>
<path fill-rule="evenodd" clip-rule="evenodd" d="M4.6055 15.0359H5.47498L4.6055 14.655V15.0359ZM5.61785 14.9712V15.6073H4.24628V15.1006H3.95646L3.59316 14.9102V14.4645L3.81359 14.2705H3.52376V14.9102H3.45029V14.2094H4.17281L5.61785 14.9712Z" fill="#FAAE29"/>
<path fill-rule="evenodd" clip-rule="evenodd" d="M2.72242 15.1602V16.0547H2.93995L3.4462 16.3125L3.95245 16.0547H4.16998V15.1641H3.95245L3.4462 14.9102L2.93995 15.1641H2.72242V15.1602Z" fill="#CA3745"/>
<path fill-rule="evenodd" clip-rule="evenodd" d="M2.29084 16.1789H1.42137L2.29084 16.5598V16.1789ZM1.2785 16.2436V15.6075H2.65006V16.1142H2.93989L3.30319 16.3047V16.7503L3.08276 16.9444H3.37258V16.3047H3.44606V17.0055H2.72354L1.2785 16.2436Z" fill="#FAAE29"/>
<path fill-rule="evenodd" clip-rule="evenodd" d="M2.29084 15.0359H1.42137L2.29084 14.655V15.0359ZM1.2785 14.9712V15.6075H2.65006V15.1006H2.93989L3.30319 14.9102V14.4645L3.08276 14.2705H3.37258V14.9102L3.4462 14.9102L3.44606 14.2094H2.72354L1.2785 14.9712Z" fill="white"/>
<path fill-rule="evenodd" clip-rule="evenodd" d="M4.6055 16.1789H5.47498L4.6055 16.5598V16.1789ZM5.61785 16.2436V15.6073H4.24628V16.1142H3.95646L3.59316 16.3047V16.7503L3.81359 16.9444H3.52376V16.3047H3.45029V17.0055H4.17281L5.61785 16.2436Z" fill="white"/>
<path fill-rule="evenodd" clip-rule="evenodd" d="M1.71387 16.1172H1.80088V15.9219H1.98282V16.1172H2.07378V15.6719H1.98282V15.8633H1.80088V15.668H1.71387V16.1172ZM2.58003 16.7539H2.671V16.5586H2.84898V16.7539H2.93995V16.3086H2.84898V16.5H2.671V16.3047H2.58003V16.7578V16.7539ZM1.70992 15.0977H1.80088V15.2891H1.98282V15.0937H2.07378V15.5469H1.98282V15.3516H1.80088V15.543H1.71387V15.0977H1.70992ZM2.58003 14.4609H2.671V14.6523H2.84898V14.457H2.93995V14.9062H2.84898V14.7148H2.671V14.9102H2.58003V14.4609ZM3.95245 16.7539H4.04341V16.5586H4.22535V16.7539H4.31631V16.3086H4.22535V16.5H4.04341V16.3047H3.95245V16.7578V16.7539ZM4.82256 15.543H4.91353V15.3516H5.09151V15.5469H5.18248V15.0977H5.09151V15.2891H4.91748V15.0937H4.82652V15.5469L4.82256 15.543Z" fill="#CA3745"/>
<path fill-rule="evenodd" clip-rule="evenodd" d="M3.95245 16.7539H4.04341V16.5586H4.22535V16.7539H4.31631V16.3086H4.22535V16.5H4.04341V16.3047H3.95245V16.7578V16.7539Z" fill="#CA3745"/>
<path fill-rule="evenodd" clip-rule="evenodd" d="M3.95245 16.7539H4.04341V16.5586H4.22535V16.7539H4.31631V16.3086H4.22535V16.5H4.04341V16.3047H3.95245V16.7578V16.7539ZM4.82256 16.1172H4.91353V15.9219H5.09151V16.1172H5.18248V15.6719H5.09151V15.8594H4.91748V15.668H4.82652V16.1172H4.82256ZM3.95245 14.9062H4.04341V14.7148H4.22535V14.9102H4.31631V14.4609H4.22535V14.6523H4.04341V14.457H3.95245V14.9062Z" fill="#CA3745"/>
<path fill-rule="evenodd" clip-rule="evenodd" d="M3.52134 15.6055L3.81006 15.3711H3.95245V15.4883H3.81006V15.5469H4.02759V15.3164H3.81006V15.1406H3.52134V15.3164H3.59253V15.1992H3.73492V15.3164L3.4462 15.5508L3.15748 15.3164V15.1992H3.30381V15.3164H3.375V15.1406H3.08628V15.3164H2.86875V15.5508H3.08628V15.4922H2.93995V15.375H3.08628L3.375 15.6094L3.08628 15.8398H2.93995V15.7227H3.08628V15.6641H2.86875V15.8984H3.08628V16.0703H3.375V15.8984H3.30381V16.0156H3.15748V15.8984L3.4462 15.6641L3.73492 15.8984V16.0156H3.59253V15.8984H3.52134V16.0703H3.81006V15.8984H4.02759V15.6641H3.81006V15.7227H3.95245V15.8398H3.81006L3.52134 15.6055Z" fill="white"/>
<path fill-rule="evenodd" clip-rule="evenodd" d="M1.42017 5.73869L1.55896 5.59643H2.39986L3.02849 4.97123H3.86939L4.49802 5.60017H5.33892L5.47771 5.73869L5.33892 5.8772H4.49394L3.86531 6.50614H3.02441L2.39986 5.8772H1.55487L1.41608 5.73869H1.42017Z" fill="#CA3745"/>
<path fill-rule="evenodd" clip-rule="evenodd" d="M1.49148 5.7501L1.56749 5.68203H2.43401L3.0839 5.02179H3.806L4.4597 5.68544H5.32622L5.39843 5.7535L5.32622 5.81817H4.4597L3.87821 6.41374H3.01169L2.43401 5.81817H1.56369L1.49148 5.7501Z" fill="#CA3745"/>
<path fill-rule="evenodd" clip-rule="evenodd" d="M3.79999 5.80982L4.07757 6.08685L3.93878 6.22536L3.86531 6.15798H3.79999V6.22536L3.86939 6.29649H4.01226L4.15105 6.15798V6.01572L3.86939 5.73869L4.15105 5.45791V5.3194L4.01226 5.18088H3.86939L3.79999 5.24827V5.3194H3.86939L3.94287 5.24827L4.08165 5.39053L3.79999 5.66756L3.52242 5.39053L3.79999 5.10975V5.03862H3.7306L3.45302 5.3194L3.17136 5.03862H3.10197V5.10975L3.37954 5.39053L3.10197 5.66756L2.82031 5.39053L2.96318 5.24827L3.03257 5.3194H3.10197V5.24827L3.03257 5.18088H2.8897L2.75091 5.3194V5.45791L3.03257 5.73869L2.75091 6.01572V6.15798L2.8897 6.29649H3.03257L3.10197 6.22536V6.15798H3.02441L2.95501 6.22536L2.81214 6.08685L3.0938 5.80982L3.37138 6.08685L3.0938 6.36762V6.43501H3.1632L3.44486 6.15798L3.72244 6.43501H3.79183V6.36762L3.51425 6.08685L3.79183 5.80982H3.79999ZM3.44894 5.45791L3.16728 5.73869L3.44894 6.01572L3.72652 5.73869L3.44894 5.45791ZM3.02849 6.50614V7.06769L3.09788 6.99282L3.16728 7.06769L3.23667 6.99282L3.30607 7.06769L3.37954 6.99282L3.44894 7.06769L3.51833 6.99282L3.58773 7.06769L3.65712 6.99282L3.72652 7.06769L3.79591 6.99282L3.86939 7.06769V6.50614L3.02441 6.50614L3.02849 6.50614ZM3.86939 4.97123L3.86939 4.40968L3.79591 4.48456L3.72652 4.40968L3.65712 4.48456L3.58773 4.40968L3.51833 4.48456L3.44894 4.40968L3.37546 4.48456L3.30607 4.40968L3.23667 4.48456L3.16728 4.40968L3.09788 4.48456L3.02849 4.40968L3.02849 4.97123H3.86939ZM5.05318 5.60017V5.03862L4.98787 5.11349L4.91847 5.03862L4.84908 5.11349L4.7756 5.03862L4.70621 5.11349L4.63681 5.03862L4.56742 5.11349L4.49802 5.03862V5.60017L5.05726 5.60017H5.05318ZM2.39986 5.60017V5.03862L2.32638 5.11349L2.25698 5.03862L2.18759 5.11349L2.1182 5.03862L2.0488 5.11349L1.97941 5.03862L1.90593 5.11349L1.83654 5.03862V5.60017H2.39577H2.39986ZM5.05726 5.8772V6.43875L4.98787 6.36388L4.91847 6.43875L4.84908 6.36388L4.7756 6.43875L4.70621 6.36388L4.63681 6.43875L4.56742 6.36388L4.49802 6.43875V5.8772H5.05726ZM2.39577 5.8772V6.43875L2.32638 6.36388L2.25698 6.43875L2.18759 6.36388L2.1182 6.43875L2.0488 6.36388L1.97941 6.43875L1.90593 6.36388L1.83654 6.43875V5.8772H2.39577Z" fill="#FAAE29"/>
<path fill-rule="evenodd" clip-rule="evenodd" d="M3.86531 6.50614L3.86531 6.8543L3.93878 6.78317L4.00818 6.85805L4.07757 6.78317L4.14697 6.85805L4.21636 6.78317L4.28576 6.85805L4.35923 6.78317L4.42863 6.85805L4.49802 6.78317L4.49802 5.8772L3.86531 6.50614ZM3.02849 6.50614L3.02849 6.8543L2.95501 6.78317L2.88562 6.85805L2.81622 6.78317L2.74683 6.85805L2.67743 6.78317L2.60804 6.85805L2.53865 6.78317L2.46925 6.85805L2.39577 6.78317L2.39577 5.8772L3.02849 6.50614ZM3.02849 4.97123L3.02849 4.62307L2.95501 4.69046L2.88562 4.62307L2.81622 4.69046L2.74683 4.62307L2.67743 4.69046L2.60804 4.62307L2.53865 4.69046L2.46925 4.62307L2.39577 4.69046L2.39577 5.60017L3.02849 4.97123ZM3.86531 4.97123V4.62307L3.93878 4.69046L4.00818 4.62307L4.07757 4.69046L4.14697 4.62307L4.21636 4.69046L4.28576 4.62307L4.35515 4.69046L4.42863 4.62307L4.49802 4.69046L4.49802 5.60017L3.86531 4.97123ZM1.83654 6.29649L1.76714 6.22537L1.69775 6.30024L1.62835 6.22537L1.55896 6.30024L1.48956 6.22537L1.41609 6.30024L1.34669 6.22537L1.2773 6.30024V5.17714L1.34669 5.25201L1.41609 5.17714L1.48956 5.25201L1.55896 5.17714L1.62835 5.25201L1.69775 5.17714L1.76714 5.25201L1.83654 5.17714L1.83654 5.60017L1.55896 5.60017L1.41608 5.73869L1.55896 5.8772L1.83654 5.8772L1.83654 6.29649ZM5.05726 6.29649L5.12666 6.22537L5.19605 6.30024L5.26545 6.22537L5.33892 6.30024L5.40832 6.22537L5.47771 6.30024L5.54711 6.22537L5.6165 6.30024V5.17714L5.54711 5.25201L5.47771 5.17714L5.40832 5.25201L5.33892 5.17714L5.26545 5.25201L5.19605 5.17714L5.12666 5.25201L5.05726 5.17714L5.05726 5.60017L5.33892 5.60017L5.47771 5.73869L5.33892 5.8772H5.05726L5.05726 6.29649Z" fill="#00843D"/>
<path fill-rule="evenodd" clip-rule="evenodd" d="M2.68152 6.55106C2.68152 6.55106 2.62437 6.60348 2.62437 6.63343C2.62437 6.65963 2.6856 6.71579 2.71417 6.71579C2.74683 6.71579 2.7999 6.65963 2.7999 6.63343C2.7999 6.60722 2.74275 6.55106 2.74275 6.55106V6.43875C2.74275 6.43875 2.86521 6.62968 2.86521 6.54732C2.86521 6.48742 2.74275 6.38634 2.74275 6.38634H2.68152C2.68152 6.38634 2.55906 6.50614 2.55906 6.54732C2.55906 6.62968 2.68152 6.43875 2.68152 6.43875V6.55106Z" fill="white"/>
<path fill-rule="evenodd" clip-rule="evenodd" d="M3.4122 6.76445C3.4122 6.76445 3.34281 6.83933 3.34281 6.87676C3.34281 6.9142 3.41628 6.99656 3.44894 6.99656C3.48976 6.99656 3.55099 6.91794 3.55099 6.88051C3.55099 6.84307 3.4816 6.76445 3.4816 6.76445V6.60722C3.4816 6.60722 3.60406 6.86179 3.60406 6.74574C3.60406 6.67086 3.4816 6.53235 3.4816 6.53235H3.4122C3.4122 6.53235 3.26933 6.70456 3.28974 6.74574C3.28974 6.86179 3.4122 6.60722 3.4122 6.60722V6.76445Z" fill="#CA3745"/>
<path d="M2.67622 5.80561C2.75258 5.80561 2.81448 5.77385 2.81448 5.73468C2.81448 5.6955 2.75258 5.66375 2.67622 5.66375C2.59986 5.66375 2.53795 5.6955 2.53795 5.73468C2.53795 5.77385 2.59986 5.80561 2.67622 5.80561Z" fill="#00843D"/>
<path d="M3.44772 5.80561C3.52408 5.80561 3.58598 5.77385 3.58598 5.73468C3.58598 5.6955 3.52408 5.66375 3.44772 5.66375C3.37136 5.66375 3.30946 5.6955 3.30946 5.73468C3.30946 5.77385 3.37136 5.80561 3.44772 5.80561Z" fill="#00843D"/>
<path d="M4.21514 5.80561C4.2915 5.80561 4.35341 5.77385 4.35341 5.73468C4.35341 5.6955 4.2915 5.66375 4.21514 5.66375C4.13878 5.66375 4.07688 5.6955 4.07688 5.73468C4.07688 5.77385 4.13878 5.80561 4.21514 5.80561Z" fill="#00843D"/>
<path fill-rule="evenodd" clip-rule="evenodd" d="M2.66927 4.9338C2.66927 4.9338 2.61212 4.87764 2.61212 4.85144C2.61212 4.82523 2.67335 4.76533 2.69784 4.76533C2.7305 4.76533 2.78357 4.82149 2.78357 4.84769C2.78357 4.87764 2.72642 4.9338 2.72642 4.9338V5.04611C2.72642 5.04611 2.85296 4.85144 2.85296 4.9338C2.85296 4.9937 2.7305 5.09852 2.7305 5.09852H2.66927C2.66927 5.09852 2.54273 4.97872 2.54273 4.93754C2.54273 4.85518 2.66519 5.04236 2.66519 5.04236V4.93005L2.66927 4.9338Z" fill="white"/>
<path fill-rule="evenodd" clip-rule="evenodd" d="M3.39587 4.71667C3.39587 4.71667 3.32648 4.64179 3.32648 4.60436C3.32648 4.56692 3.40404 4.4883 3.43261 4.4883C3.47343 4.4883 3.53874 4.56317 3.53874 4.60061C3.53874 4.63805 3.46935 4.72041 3.46935 4.72041V4.87016C3.46935 4.87016 3.59181 4.61933 3.59181 4.73538C3.59181 4.81026 3.46935 4.95252 3.46935 4.95252H3.39179C3.39179 4.95252 3.24892 4.77656 3.26933 4.73538C3.26933 4.62307 3.39179 4.8739 3.39179 4.8739V4.71667H3.39587Z" fill="#CA3745"/>
<path fill-rule="evenodd" clip-rule="evenodd" d="M4.17146 6.55106C4.17146 6.55106 4.11431 6.60348 4.11431 6.63343C4.11431 6.65963 4.17554 6.71579 4.20412 6.71579C4.23677 6.71579 4.28984 6.65963 4.28984 6.63343C4.28984 6.60722 4.23269 6.55106 4.23269 6.55106V6.43875C4.23269 6.43875 4.35515 6.62968 4.35515 6.54732C4.35515 6.48742 4.23269 6.38634 4.23269 6.38634H4.16738C4.16738 6.38634 4.04492 6.50614 4.04492 6.54732C4.04492 6.62968 4.16738 6.43875 4.16738 6.43875V6.55106H4.17146ZM4.15921 4.9338C4.15921 4.9338 4.10207 4.87764 4.10207 4.84769C4.10207 4.82523 4.1633 4.76533 4.18779 4.76533C4.22044 4.76533 4.27351 4.82149 4.27351 4.84769C4.27351 4.87764 4.21636 4.9338 4.21636 4.9338V5.04611C4.21636 5.04611 4.34291 4.85144 4.34291 4.9338C4.34291 4.9937 4.22044 5.09852 4.22044 5.09852H4.15921C4.15921 5.09852 4.03267 4.97872 4.03267 4.93754C4.03267 4.85518 4.15513 5.04236 4.15513 5.04236V4.93005L4.15921 4.9338Z" fill="white"/>
<path fill-rule="evenodd" clip-rule="evenodd" d="M2.07329 6.16172C2.07329 6.16172 1.99573 6.21413 1.99573 6.2366C1.99573 6.2628 2.07737 6.31896 2.11411 6.31521C2.15493 6.31521 2.22841 6.26655 2.22841 6.24034C2.22841 6.21413 2.15085 6.16172 2.15085 6.16172V6.0569C2.15085 6.0569 2.28964 6.22536 2.28964 6.15049C2.28964 6.09808 2.15085 6.00449 2.15085 6.00449H2.07329C2.07329 6.00449 1.91409 6.12429 1.93859 6.15049C1.93859 6.22536 2.07329 6.0569 2.07329 6.0569V6.16172ZM2.05697 5.37181C2.05697 5.37181 1.97941 5.3194 1.97941 5.29319C1.97941 5.26698 2.06105 5.21457 2.09779 5.21832C2.13861 5.21832 2.21208 5.26698 2.21208 5.29319C2.21208 5.3194 2.13452 5.36806 2.13452 5.36806V5.47289C2.13452 5.47289 2.27331 5.30442 2.27331 5.38304C2.27331 5.43171 2.13452 5.5253 2.13452 5.5253H2.05697C2.05697 5.5253 1.89777 5.40924 1.92226 5.38304C1.92226 5.30817 2.05697 5.47289 2.05697 5.47289V5.37181ZM4.76335 6.143C4.76335 6.143 4.68171 6.19542 4.68171 6.22162C4.68171 6.24783 4.76744 6.30024 4.80417 6.30024C4.845 6.30024 4.91847 6.24783 4.91847 6.22536C4.91847 6.19542 4.83683 6.143 4.83683 6.143V6.04192C4.83683 6.04192 4.97562 6.21039 4.97562 6.13177C4.97562 6.08311 4.84091 5.98951 4.84091 5.98951H4.75927C4.75927 5.98951 4.60416 6.10557 4.62457 6.13177C4.62457 6.21039 4.76335 6.04192 4.76335 6.04192V6.14675V6.143ZM4.74703 5.35683C4.74703 5.35683 4.66539 5.30442 4.66539 5.27822C4.66539 5.25201 4.75111 5.1996 4.78785 5.1996C4.82867 5.1996 4.90214 5.25201 4.90214 5.27447C4.90214 5.30442 4.8205 5.35309 4.8205 5.35309V5.45791C4.8205 5.45791 4.95929 5.28945 4.95929 5.36432C4.95929 5.41673 4.82459 5.51032 4.82459 5.51032H4.74294C4.74294 5.51032 4.58783 5.39427 4.60824 5.36806C4.60824 5.28945 4.74703 5.45791 4.74703 5.45791V5.35309V5.35683Z" fill="#CA3745"/>
<path fill-rule="evenodd" clip-rule="evenodd" d="M1.50181 6.15423C1.47732 6.10557 1.48548 6.08311 1.48548 6.0569C1.48548 6.03069 1.55487 5.98203 1.57937 5.98203C1.61202 5.98203 1.66509 6.03444 1.66509 6.06439C1.66509 6.09059 1.66509 6.11305 1.65284 6.16172L1.62019 6.08311C1.57528 6.19542 1.5712 6.19542 1.54671 6.07936L1.50589 6.15423H1.50181ZM1.50181 5.34935C1.4814 5.39801 1.48548 5.42048 1.48548 5.44668C1.48548 5.47289 1.55487 5.52155 1.58345 5.52155C1.6161 5.52155 1.66917 5.46914 1.66917 5.43919C1.66917 5.41299 1.66917 5.39053 1.65693 5.34186L1.62019 5.42048C1.57937 5.30817 1.57528 5.30817 1.54671 5.42422L1.50589 5.34935H1.50181ZM5.27769 6.143C5.2532 6.09434 5.25728 6.07187 5.25728 6.04567C5.25728 6.01946 5.33076 5.9708 5.35525 5.9708C5.38791 5.9708 5.44097 6.02695 5.44097 6.05316C5.44097 6.07936 5.44097 6.10557 5.42873 6.15049L5.39199 6.07187C5.35117 6.18418 5.34709 6.18793 5.31851 6.07187L5.27769 6.143ZM5.27769 5.34186C5.2532 5.38678 5.26136 5.40924 5.26136 5.43919C5.26136 5.46166 5.33076 5.51407 5.35525 5.51407C5.38791 5.51407 5.44505 5.45791 5.44505 5.43171C5.44505 5.40176 5.44505 5.3793 5.43281 5.33063L5.39199 5.41299C5.35117 5.29693 5.35117 5.29319 5.32259 5.41299L5.28177 5.33811L5.27769 5.34186Z" fill="white"/>
<path fill-rule="evenodd" clip-rule="evenodd" d="M3.01624 7.0826V6.88044H2.36312V6.48362H1.78347V6.35259H1.2773V5.15463H1.78347V5.0236H2.36312V4.62678H3.01624V4.42836H3.88163V4.62678H4.53476V5.0236H5.11033V5.15837H5.62058V6.35259H5.11441V6.48362H4.53884V6.88044H3.88572V7.07886H3.02033L3.01624 7.0826ZM2.94277 7.14624V6.94783H2.28964V6.551H1.71407V6.41623H1.2079V5.09099H1.71407V4.95996H2.28964V4.55939H2.94277V4.36098H3.95511V4.55939H4.60824V4.95996H5.1838V5.09099H5.68998V6.41623H5.1838V6.551H4.60416V6.94783H3.95103V7.14624H2.94277Z" fill="#CA3745"/>
<path d="M3.02849 4.97123L2.39986 5.59643H1.55896L1.42017 5.73869H1.41608M3.02849 4.97123H3.86939M3.02849 4.97123L3.02849 4.40968L3.09788 4.48456L3.16728 4.40968L3.23667 4.48456L3.30607 4.40968L3.37546 4.48456L3.44894 4.40968L3.51833 4.48456L3.58773 4.40968L3.65712 4.48456L3.72652 4.40968L3.79591 4.48456L3.86939 4.40968L3.86939 4.97123M3.02849 4.97123L3.02849 4.62307L2.95501 4.69046L2.88562 4.62307L2.81622 4.69046L2.74683 4.62307L2.67743 4.69046L2.60804 4.62307L2.53865 4.69046L2.46925 4.62307L2.39577 4.69046L2.39577 5.60017M3.02849 4.97123L2.39577 5.60017M3.86939 4.97123L4.49802 5.60017M4.49802 5.60017H5.33892M4.49802 5.60017V5.03862L4.56742 5.11349L4.63681 5.03862L4.70621 5.11349L4.7756 5.03862L4.84908 5.11349L4.91847 5.03862L4.98787 5.11349L5.05318 5.03862V5.60017H5.05726M4.49802 5.60017L5.05726 5.60017M4.49802 5.60017L4.49802 4.69046L4.42863 4.62307L4.35515 4.69046L4.28576 4.62307L4.21636 4.69046L4.14697 4.62307L4.07757 4.69046L4.00818 4.62307L3.93878 4.69046L3.86531 4.62307V4.97123L4.49802 5.60017ZM5.33892 5.60017L5.47771 5.73869L5.33892 5.8772M5.33892 5.60017L5.05726 5.60017M5.33892 5.8772H4.49394L3.86531 6.50614M5.33892 5.8772H5.05726M3.86531 6.50614H3.02441M3.86531 6.50614L3.86531 6.8543L3.93878 6.78317L4.00818 6.85805L4.07757 6.78317L4.14697 6.85805L4.21636 6.78317L4.28576 6.85805L4.35923 6.78317L4.42863 6.85805L4.49802 6.78317L4.49802 5.8772M3.86531 6.50614L4.49802 5.8772M3.02441 6.50614L2.39986 5.8772H1.55487L1.41608 5.73869M3.02441 6.50614L3.86939 6.50614V7.06769L3.79591 6.99282L3.72652 7.06769L3.65712 6.99282L3.58773 7.06769L3.51833 6.99282L3.44894 7.06769L3.37954 6.99282L3.30607 7.06769L3.23667 6.99282L3.16728 7.06769L3.09788 6.99282L3.02849 7.06769V6.50614M3.02441 6.50614L3.02849 6.50614M1.41608 5.73869L1.55896 5.60017L1.83654 5.60017M1.41608 5.73869L1.55896 5.8772L1.83654 5.8772M3.02849 6.50614L3.02849 6.8543L2.95501 6.78317L2.88562 6.85805L2.81622 6.78317L2.74683 6.85805L2.67743 6.78317L2.60804 6.85805L2.53865 6.78317L2.46925 6.85805L2.39577 6.78317L2.39577 5.8772M3.02849 6.50614L2.39577 5.8772M5.05726 5.60017L5.05726 5.17714L5.12666 5.25201L5.19605 5.17714L5.26545 5.25201L5.33892 5.17714L5.40832 5.25201L5.47771 5.17714L5.54711 5.25201L5.6165 5.17714V6.30024L5.54711 6.22537L5.47771 6.30024L5.40832 6.22537L5.33892 6.30024L5.26545 6.22537L5.19605 6.30024L5.12666 6.22537L5.05726 6.29649L5.05726 5.8772M1.83654 5.60017V5.03862L1.90593 5.11349L1.97941 5.03862L2.0488 5.11349L2.1182 5.03862L2.18759 5.11349L2.25698 5.03862L2.32638 5.11349L2.39986 5.03862V5.60017H2.39577M1.83654 5.60017H2.39577M1.83654 5.60017L1.83654 5.17714L1.76714 5.25201L1.69775 5.17714L1.62835 5.25201L1.55896 5.17714L1.48956 5.25201L1.41609 5.17714L1.34669 5.25201L1.2773 5.17714V6.30024L1.34669 6.22537L1.41609 6.30024L1.48956 6.22537L1.55896 6.30024L1.62835 6.22537L1.69775 6.30024L1.76714 6.22537L1.83654 6.29649L1.83654 5.8772M5.05726 5.8772V6.43875L4.98787 6.36388L4.91847 6.43875L4.84908 6.36388L4.7756 6.43875L4.70621 6.36388L4.63681 6.43875L4.56742 6.36388L4.49802 6.43875V5.8772M5.05726 5.8772H4.49802M2.39577 5.8772V6.43875L2.32638 6.36388L2.25698 6.43875L2.18759 6.36388L2.1182 6.43875L2.0488 6.36388L1.97941 6.43875L1.90593 6.36388L1.83654 6.43875V5.8772M2.39577 5.8772H1.83654M1.49148 5.7501L1.56749 5.68203H2.43401L3.0839 5.02179H3.806L4.4597 5.68544H5.32622L5.39843 5.7535L5.32622 5.81817H4.4597L3.87821 6.41374H3.01169L2.43401 5.81817H1.56369L1.49148 5.7501ZM3.79999 5.80982L4.07757 6.08685L3.93878 6.22536L3.86531 6.15798H3.79999V6.22536L3.86939 6.29649H4.01226L4.15105 6.15798V6.01572L3.86939 5.73869L4.15105 5.45791V5.3194L4.01226 5.18088H3.86939L3.79999 5.24827V5.3194H3.86939L3.94287 5.24827L4.08165 5.39053L3.79999 5.66756L3.52242 5.39053L3.79999 5.10975V5.03862H3.7306L3.45302 5.3194L3.17136 5.03862H3.10197V5.10975L3.37954 5.39053L3.10197 5.66756L2.82031 5.39053L2.96318 5.24827L3.03257 5.3194H3.10197V5.24827L3.03257 5.18088H2.8897L2.75091 5.3194V5.45791L3.03257 5.73869L2.75091 6.01572V6.15798L2.8897 6.29649H3.03257L3.10197 6.22536V6.15798H3.02441L2.95501 6.22536L2.81214 6.08685L3.0938 5.80982L3.37138 6.08685L3.0938 6.36762V6.43501H3.1632L3.44486 6.15798L3.72244 6.43501H3.79183V6.36762L3.51425 6.08685L3.79183 5.80982H3.79999ZM3.44894 5.45791L3.16728 5.73869L3.44894 6.01572L3.72652 5.73869L3.44894 5.45791ZM2.68152 6.55106C2.68152 6.55106 2.62437 6.60348 2.62437 6.63343C2.62437 6.65963 2.6856 6.71579 2.71417 6.71579C2.74683 6.71579 2.7999 6.65963 2.7999 6.63343C2.7999 6.60722 2.74275 6.55106 2.74275 6.55106V6.43875C2.74275 6.43875 2.86521 6.62968 2.86521 6.54732C2.86521 6.48742 2.74275 6.38634 2.74275 6.38634H2.68152C2.68152 6.38634 2.55906 6.50614 2.55906 6.54732C2.55906 6.62968 2.68152 6.43875 2.68152 6.43875V6.55106ZM3.4122 6.76445C3.4122 6.76445 3.34281 6.83933 3.34281 6.87676C3.34281 6.9142 3.41628 6.99656 3.44894 6.99656C3.48976 6.99656 3.55099 6.91794 3.55099 6.88051C3.55099 6.84307 3.4816 6.76445 3.4816 6.76445V6.60722C3.4816 6.60722 3.60406 6.86179 3.60406 6.74574C3.60406 6.67086 3.4816 6.53235 3.4816 6.53235H3.4122C3.4122 6.53235 3.26933 6.70456 3.28974 6.74574C3.28974 6.86179 3.4122 6.60722 3.4122 6.60722V6.76445ZM2.81448 5.73468C2.81448 5.77385 2.75258 5.80561 2.67622 5.80561C2.59986 5.80561 2.53795 5.77385 2.53795 5.73468C2.53795 5.6955 2.59986 5.66375 2.67622 5.66375C2.75258 5.66375 2.81448 5.6955 2.81448 5.73468ZM3.58598 5.73468C3.58598 5.77385 3.52408 5.80561 3.44772 5.80561C3.37136 5.80561 3.30946 5.77385 3.30946 5.73468C3.30946 5.6955 3.37136 5.66375 3.44772 5.66375C3.52408 5.66375 3.58598 5.6955 3.58598 5.73468ZM4.35341 5.73468C4.35341 5.77385 4.2915 5.80561 4.21514 5.80561C4.13878 5.80561 4.07688 5.77385 4.07688 5.73468C4.07688 5.6955 4.13878 5.66375 4.21514 5.66375C4.2915 5.66375 4.35341 5.6955 4.35341 5.73468ZM2.66927 4.9338C2.66927 4.9338 2.61212 4.87764 2.61212 4.85144C2.61212 4.82523 2.67335 4.76533 2.69784 4.76533C2.7305 4.76533 2.78357 4.82149 2.78357 4.84769C2.78357 4.87764 2.72642 4.9338 2.72642 4.9338V5.04611C2.72642 5.04611 2.85296 4.85144 2.85296 4.9338C2.85296 4.9937 2.7305 5.09852 2.7305 5.09852H2.66927C2.66927 5.09852 2.54273 4.97872 2.54273 4.93754C2.54273 4.85518 2.66519 5.04236 2.66519 5.04236V4.93005L2.66927 4.9338ZM3.39587 4.71667C3.39587 4.71667 3.32648 4.64179 3.32648 4.60436C3.32648 4.56692 3.40404 4.4883 3.43261 4.4883C3.47343 4.4883 3.53874 4.56317 3.53874 4.60061C3.53874 4.63805 3.46935 4.72041 3.46935 4.72041V4.87016C3.46935 4.87016 3.59181 4.61933 3.59181 4.73538C3.59181 4.81026 3.46935 4.95252 3.46935 4.95252H3.39179C3.39179 4.95252 3.24892 4.77656 3.26933 4.73538C3.26933 4.62307 3.39179 4.8739 3.39179 4.8739V4.71667H3.39587ZM4.17146 6.55106C4.17146 6.55106 4.11431 6.60348 4.11431 6.63343C4.11431 6.65963 4.17554 6.71579 4.20412 6.71579C4.23677 6.71579 4.28984 6.65963 4.28984 6.63343C4.28984 6.60722 4.23269 6.55106 4.23269 6.55106V6.43875C4.23269 6.43875 4.35515 6.62968 4.35515 6.54732C4.35515 6.48742 4.23269 6.38634 4.23269 6.38634H4.16738C4.16738 6.38634 4.04492 6.50614 4.04492 6.54732C4.04492 6.62968 4.16738 6.43875 4.16738 6.43875V6.55106H4.17146ZM4.15921 4.9338C4.15921 4.9338 4.10207 4.87764 4.10207 4.84769C4.10207 4.82523 4.1633 4.76533 4.18779 4.76533C4.22044 4.76533 4.27351 4.82149 4.27351 4.84769C4.27351 4.87764 4.21636 4.9338 4.21636 4.9338V5.04611C4.21636 5.04611 4.34291 4.85144 4.34291 4.9338C4.34291 4.9937 4.22044 5.09852 4.22044 5.09852H4.15921C4.15921 5.09852 4.03267 4.97872 4.03267 4.93754C4.03267 4.85518 4.15513 5.04236 4.15513 5.04236V4.93005L4.15921 4.9338ZM2.07329 6.16172C2.07329 6.16172 1.99573 6.21413 1.99573 6.2366C1.99573 6.2628 2.07737 6.31896 2.11411 6.31521C2.15493 6.31521 2.22841 6.26655 2.22841 6.24034C2.22841 6.21413 2.15085 6.16172 2.15085 6.16172V6.0569C2.15085 6.0569 2.28964 6.22536 2.28964 6.15049C2.28964 6.09808 2.15085 6.00449 2.15085 6.00449H2.07329C2.07329 6.00449 1.91409 6.12429 1.93859 6.15049C1.93859 6.22536 2.07329 6.0569 2.07329 6.0569V6.16172ZM2.05697 5.37181C2.05697 5.37181 1.97941 5.3194 1.97941 5.29319C1.97941 5.26698 2.06105 5.21457 2.09779 5.21832C2.13861 5.21832 2.21208 5.26698 2.21208 5.29319C2.21208 5.3194 2.13452 5.36806 2.13452 5.36806V5.47289C2.13452 5.47289 2.27331 5.30442 2.27331 5.38304C2.27331 5.43171 2.13452 5.5253 2.13452 5.5253H2.05697C2.05697 5.5253 1.89777 5.40924 1.92226 5.38304C1.92226 5.30817 2.05697 5.47289 2.05697 5.47289V5.37181ZM4.76335 6.143C4.76335 6.143 4.68171 6.19542 4.68171 6.22162C4.68171 6.24783 4.76744 6.30024 4.80417 6.30024C4.845 6.30024 4.91847 6.24783 4.91847 6.22536C4.91847 6.19542 4.83683 6.143 4.83683 6.143V6.04192C4.83683 6.04192 4.97562 6.21039 4.97562 6.13177C4.97562 6.08311 4.84091 5.98951 4.84091 5.98951H4.75927C4.75927 5.98951 4.60416 6.10557 4.62457 6.13177C4.62457 6.21039 4.76335 6.04192 4.76335 6.04192V6.14675V6.143ZM4.74703 5.35683C4.74703 5.35683 4.66539 5.30442 4.66539 5.27822C4.66539 5.25201 4.75111 5.1996 4.78785 5.1996C4.82867 5.1996 4.90214 5.25201 4.90214 5.27447C4.90214 5.30442 4.8205 5.35309 4.8205 5.35309V5.45791C4.8205 5.45791 4.95929 5.28945 4.95929 5.36432C4.95929 5.41673 4.82459 5.51032 4.82459 5.51032H4.74294C4.74294 5.51032 4.58783 5.39427 4.60824 5.36806C4.60824 5.28945 4.74703 5.45791 4.74703 5.45791V5.35309V5.35683ZM1.50181 6.15423C1.47732 6.10557 1.48548 6.08311 1.48548 6.0569C1.48548 6.03069 1.55487 5.98203 1.57937 5.98203C1.61202 5.98203 1.66509 6.03444 1.66509 6.06439C1.66509 6.09059 1.66509 6.11305 1.65284 6.16172L1.62019 6.08311C1.57528 6.19542 1.5712 6.19542 1.54671 6.07936L1.50589 6.15423H1.50181ZM1.50181 5.34935C1.4814 5.39801 1.48548 5.42048 1.48548 5.44668C1.48548 5.47289 1.55487 5.52155 1.58345 5.52155C1.6161 5.52155 1.66917 5.46914 1.66917 5.43919C1.66917 5.41299 1.66917 5.39053 1.65693 5.34186L1.62019 5.42048C1.57937 5.30817 1.57528 5.30817 1.54671 5.42422L1.50589 5.34935H1.50181ZM5.27769 6.143C5.2532 6.09434 5.25728 6.07187 5.25728 6.04567C5.25728 6.01946 5.33076 5.9708 5.35525 5.9708C5.38791 5.9708 5.44097 6.02695 5.44097 6.05316C5.44097 6.07936 5.44097 6.10557 5.42873 6.15049L5.39199 6.07187C5.35117 6.18418 5.34709 6.18793 5.31851 6.07187L5.27769 6.143ZM5.27769 5.34186C5.2532 5.38678 5.26136 5.40924 5.26136 5.43919C5.26136 5.46166 5.33076 5.51407 5.35525 5.51407C5.38791 5.51407 5.44505 5.45791 5.44505 5.43171C5.44505 5.40176 5.44505 5.3793 5.43281 5.33063L5.39199 5.41299C5.35117 5.29693 5.35117 5.29319 5.32259 5.41299L5.28177 5.33811L5.27769 5.34186ZM3.01624 7.0826V6.88044H2.36312V6.48362H1.78347V6.35259H1.2773V5.15463H1.78347V5.0236H2.36312V4.62678H3.01624V4.42836H3.88163V4.62678H4.53476V5.0236H5.11033V5.15837H5.62058V6.35259H5.11441V6.48362H4.53884V6.88044H3.88572V7.07886H3.02033L3.01624 7.0826ZM2.94277 7.14624V6.94783H2.28964V6.551H1.71407V6.41623H1.2079V5.09099H1.71407V4.95996H2.28964V4.55939H2.94277V4.36098H3.95511V4.55939H4.60824V4.95996H5.1838V5.09099H5.68998V6.41623H5.1838V6.551H4.60416V6.94783H3.95103V7.14624H2.94277Z" stroke="black" stroke-width="0.011655"/>
</g>
<defs>
<clipPath id="clip0_9_1775">
<rect width="27" height="20" fill="white"/>
</clipPath>
</defs>
</svg>
