<svg width="38" height="26" viewBox="0 0 38 26" fill="none" xmlns="http://www.w3.org/2000/svg">
<path d="M12.2775 15.4309L6.5287 10.3948L1 15.9526M25.7225 10.5674L31.4713 15.6034L37 10.0457M13.7861 2.19732C15.9652 1.21983 18.3741 0.828821 20.7391 1.06873C23.1042 1.30863 25.3305 2.16983 27.1652 3.55446C28.9998 4.93909 30.3691 6.79162 31.1175 8.90153C31.866 11.0114 31.9635 13.2941 31.399 15.4902M24.2151 23.802C22.0358 24.7799 19.6266 25.1711 17.2612 24.9314C14.8959 24.6916 12.6692 23.8303 10.8343 22.4455C8.9995 21.0607 7.63007 19.2079 6.88173 17.0976C6.13338 14.9874 6.03613 12.7044 6.60104 10.5081" stroke="black" stroke-width="2" stroke-linecap="round" stroke-linejoin="round"/>
</svg>
