<svg width="49" height="52" viewBox="0 0 49 52" fill="none" xmlns="http://www.w3.org/2000/svg">
<path d="M37.0808 51.2747C37.3261 51.52 37.6429 51.6426 37.97 51.6426C38.297 51.6426 38.6139 51.52 38.8592 51.2747L48.5178 41.6161C49.0084 41.1255 49.0084 40.3385 48.5178 39.8479L38.8592 30.1892C38.3686 29.6986 37.5816 29.6986 37.091 30.1892C36.6004 30.6798 36.6004 31.4668 37.091 31.9574L44.6135 39.4799H1.79867C1.10366 39.4799 0.541519 40.0421 0.541519 40.7371C0.541519 41.4321 1.10366 41.9942 1.79867 41.9942H44.6033L37.0808 49.5065C36.5902 49.9971 36.5902 50.7943 37.0808 51.2747Z" fill="black"/>
<path d="M10.5783 0.367948L0.91969 10.0266C0.429093 10.5172 0.429093 11.3042 0.91969 11.7948L10.5783 21.4534C10.8236 21.6987 11.1405 21.8213 11.4675 21.8213C11.7946 21.8213 12.1114 21.6987 12.3567 21.4534C12.8473 20.9628 12.8473 20.1758 12.3567 19.6852L4.83424 12.1627H47.6388C48.3338 12.1627 48.896 11.6006 48.896 10.9056C48.896 10.2105 48.3338 9.64841 47.6388 9.64841H4.82402L12.3465 2.13614C12.8371 1.64554 12.8371 0.858545 12.3465 0.367948C11.8559 -0.122649 11.0587 -0.122649 10.5783 0.367948Z" fill="black"/>
</svg>
