<svg width="54" height="40" viewBox="0 0 54 40" fill="none" xmlns="http://www.w3.org/2000/svg">
<path d="M17.4385 23.6846L9.26252 16.0523L1.39962 24.4752M36.5599 16.3138L44.7358 23.9461L52.5987 15.5232M19.584 3.62867C22.683 2.14725 26.109 1.55466 29.4726 1.91824C32.8362 2.28183 36.0025 3.58701 38.6116 5.68546C41.2208 7.78391 43.1683 10.5915 44.2327 13.7891C45.2971 16.9868 45.4358 20.4462 44.633 23.7744M34.416 36.3712C31.3168 37.8533 27.8904 38.4463 24.5263 38.0829C21.1623 37.7195 17.9955 36.4142 15.386 34.3155C12.7765 32.2167 10.8289 29.4087 9.7646 26.2106C8.7003 23.0124 8.56199 19.5525 9.3654 16.224" stroke="#287EA2" stroke-width="2" stroke-linecap="round" stroke-linejoin="round"/>
</svg>
